<?xml version="1.0" encoding="utf-8"?>
<svg version="1.1" xmlns:xlink="http://www.w3.org/1999/xlink" width="20px" height="17px" xmlns="http://www.w3.org/2000/svg">
  <g transform="matrix(1 0 0 1 -76 -941 )">
    <path d="M 8.55208333333333 10.2424758659852  C 9.07291666666667 9.75979557069847  9.33333333333333 9.1773613477191  9.33333333333333 8.49517319704713  C 9.33333333333333 7.81298504637516  9.07291666666667 7.2305508233958  8.55208333333333 6.74787052810903  C 8.03125 6.26519023282226  7.40277777777778 6.02385008517888  6.66666666666667 6.02385008517888  C 5.93055555555556 6.02385008517888  5.30208333333333 6.26519023282226  4.78125 6.74787052810903  C 4.26041666666667 7.2305508233958  4 7.81298504637516  4 8.49517319704713  C 4 9.1773613477191  4.26041666666667 9.75979557069847  4.78125 10.2424758659852  C 5.30208333333333 10.725156161272  5.93055555555556 10.9664963089154  6.66666666666667 10.9664963089154  C 7.40277777777778 10.9664963089154  8.03125 10.725156161272  8.55208333333333 10.2424758659852  Z M 16.9427083333333 14.3114707552527  C 17.203125 14.0701306076093  17.3333333333333 13.7789134961196  17.3333333333333 13.4378194207836  C 17.3333333333333 13.1031610827182  17.2013888888889 12.8135529055461  16.9375 12.5689948892675  C 16.6736111111111 12.3244368729888  16.3611111111111 12.2021578648495  16 12.2021578648495  C 15.6388888888889 12.2021578648495  15.3263888888889 12.3244368729888  15.0625 12.5689948892675  C 14.7986111111111 12.8135529055461  14.6666666666667 13.1031610827182  14.6666666666667 13.4378194207836  C 14.6666666666667 13.7789134961196  14.796875 14.0701306076093  15.0572916666667 14.3114707552527  C 15.3177083333333 14.5528109028961  15.6319444444444 14.6734809767178  16 14.6734809767178  C 16.3680555555556 14.6734809767178  16.6822916666667 14.5528109028961  16.9427083333333 14.3114707552527  Z M 16.9427083333333 4.42617830777967  C 17.203125 4.18483816013629  17.3333333333333 3.8936210486466  17.3333333333333 3.55252697331062  C 17.3333333333333 3.21786863524513  17.2013888888889 2.92826045807306  16.9375 2.68370244179444  C 16.6736111111111 2.4391444255158  16.3611111111111 2.31686541737649  16 2.31686541737649  C 15.6388888888889 2.31686541737649  15.3263888888889 2.4391444255158  15.0625 2.68370244179444  C 14.7986111111111 2.92826045807306  14.6666666666667 3.21786863524513  14.6666666666667 3.55252697331062  C 14.6666666666667 3.8936210486466  14.796875 4.18483816013629  15.0572916666667 4.42617830777967  C 15.3177083333333 4.66751845542306  15.6319444444444 4.78818852924475  16 4.78818852924475  C 16.3680555555556 4.78818852924475  16.6822916666667 4.66751845542306  16.9427083333333 4.42617830777967  Z M 13.2604166666667 7.42844974446337  C 13.3090277777778 7.48315351126254  13.3333333333333 7.54590194964982  13.3333333333333 7.61669505962521  L 13.3333333333333 9.40261215218626  C 13.3333333333333 9.46696952489116  13.3090277777778 9.52971796327844  13.2604166666667 9.5908574673481  C 13.2118055555556 9.65199697141776  13.15625 9.68578459208783  13.09375 9.69222032935832  L 11.4791666666667 9.92390687109597  C 11.4027777777778 10.1491576755631  11.2916666666667 10.3937156918418  11.1458333333333 10.6575809199319  C 11.3819444444444 10.9664963089154  11.6944444444444 11.3365512019686  12.0833333333333 11.7677455990914  C 12.1319444444444 11.8385387090668  12.15625 11.9028960817717  12.15625 11.9608177172061  C 12.15625 12.038046564452  12.1319444444444 12.0991860685217  12.0833333333333 12.1442362294151  C 11.9236111111111 12.3373083475298  11.6371527777778 12.6253075903842  11.2239583333333 13.0082339579784  C 10.8107638888889 13.3911603255726  10.5381944444444 13.5826235093697  10.40625 13.5826235093697  C 10.3298611111111 13.5826235093697  10.2569444444444 13.560098428923  10.1875 13.5150482680295  L 8.98958333333333 12.6462237365133  C 8.73263888888889 12.7685027446527  8.46527777777778 12.8682566723453  8.1875 12.9454855195911  C 8.11111111111111 13.6405451448041  8.03125 14.1393147832671  7.94791666666667 14.4417944349801  C 7.89930555555556 14.5962521294719  7.79513888888889 14.6734809767178  7.63541666666667 14.6734809767178  L 5.69791666666667 14.6734809767178  C 5.62152777777778 14.6734809767178  5.55208333333333 14.6493469619534  5.48958333333333 14.6010789324248  C 5.42708333333333 14.5528109028961  5.39236111111111 14.4964982017793  5.38541666666667 14.4321408290744  L 5.14583333333333 12.9551391254969  C 4.90972222222222 12.890781752792  4.64930555555556 12.7910278250994  4.36458333333333 12.6558773424191  L 3.13541666666667 13.5150482680295  C 3.08680555555556 13.560098428923  3.01736111111111 13.5826235093697  2.92708333333333 13.5826235093697  C 2.85069444444444 13.5826235093697  2.77777777777778 13.5568805602877  2.70833333333333 13.5053946621238  C 1.70833333333333 12.6494416051486  1.20833333333333 12.1345826235094  1.20833333333333 11.9608177172061  C 1.20833333333333 11.9028960817717  1.23263888888889 11.8417565777021  1.28125 11.7773992049972  C 1.35069444444444 11.6872988832103  1.49305555555556 11.5167518455423  1.70833333333333 11.2657580919932  C 1.92361111111111 11.0147643384441  2.08680555555556 10.8184743516941  2.19791666666667 10.6768881317433  C 2.03819444444444 10.3937156918418  1.91666666666667 10.1298504637517  1.83333333333333 9.88529244747303  L 0.25 9.65360590573538  C 0.180555555555556 9.64717016846489  0.121527777777778 9.61660041643006  0.0729166666666667 9.56189664963089  C 0.0243055555555556 9.50719288283172  0 9.44444444444444  0 9.37365133446905  L 0 7.58773424190801  C 0 7.5233768692031  0.0243055555555556 7.46062843081582  0.0729166666666667 7.39948892674617  C 0.121527777777778 7.33834942267651  0.177083333333333 7.30456180200644  0.239583333333333 7.29812606473595  L 1.85416666666667 7.0664395229983  C 1.93055555555556 6.84118871853114  2.04166666666667 6.59663070225251  2.1875 6.33276547416241  C 1.95138888888889 6.02385008517888  1.63888888888889 5.65379519212568  1.25 5.22260079500284  C 1.20138888888889 5.15180768502744  1.17708333333333 5.08745031232254  1.17708333333333 5.02952867688813  C 1.17708333333333 4.95229982964225  1.20138888888889 4.88794245693734  1.25 4.83645655877342  C 1.40277777777778 4.64338444065872  1.6875 4.3569941321219  2.10416666666667 3.97728563316297  C 2.52083333333333 3.59757713420405  2.79513888888889 3.40772288472459  2.92708333333333 3.40772288472459  C 3.00347222222222 3.40772288472459  3.07638888888889 3.4302479651713  3.14583333333333 3.47529812606474  L 4.34375 4.34412265758092  C 4.57986111111111 4.22827938671209  4.84722222222222 4.12530759038425  5.14583333333333 4.03520726859739  C 5.22222222222222 3.34014764338444  5.30208333333333 2.84459587355669  5.38541666666667 2.54855195911414  C 5.43402777777778 2.39409426462237  5.53819444444445 2.31686541737649  5.69791666666667 2.31686541737649  L 7.63541666666667 2.31686541737649  C 7.71180555555556 2.31686541737649  7.78125 2.34099943214083  7.84375 2.38926746166951  C 7.90625 2.43753549119818  7.94097222222222 2.49384819231497  7.94791666666667 2.55820556501988  L 8.1875 4.03520726859739  C 8.42361111111111 4.09956464130229  8.68402777777778 4.19931856899489  8.96875 4.33446905167518  L 10.1979166666667 3.47529812606474  C 10.2534722222222 3.4302479651713  10.3229166666667 3.40772288472459  10.40625 3.40772288472459  C 10.4826388888889 3.40772288472459  10.5555555555556 3.43346583380655  10.625 3.48495173197047  C 11.625 4.34090478894567  12.125 4.8557637705849  12.125 5.02952867688813  C 12.125 5.08101457505205  12.1006944444444 5.14215407912171  12.0520833333333 5.2129471890971  C 11.96875 5.31591898542495  11.8229166666667 5.48968389172818  11.6145833333333 5.73424190800682  C 11.40625 5.97879992428544  11.25 6.17187204240015  11.1458333333333 6.31345826235094  C 11.3055555555556 6.62237365133447  11.4236111111111 6.88623887942457  11.5 7.10505394662124  L 13.0833333333333 7.32708688245315  C 13.1527777777778 7.33995835699413  13.2118055555556 7.37374597766421  13.2604166666667 7.42844974446337  Z M 18.4479166666667 12.4628052243044  C 19.4826388888889 12.5593412833617  20 12.6590952110543  20 12.7620670073822  L 20 14.1135718341851  C 20 14.216543630513  19.4826388888889 14.3162975582056  18.4479166666667 14.4128336172629  C 18.3645833333333 14.5865985235662  18.2604166666667 14.7539276925989  18.1354166666667 14.9148211243612  C 18.4895833333333 15.6420594359266  18.6666666666667 16.0861253075904  18.6666666666667 16.2470187393526  C 18.6666666666667 16.2727616884346  18.6527777777778 16.2952867688813  18.625 16.3145939806928  C 17.7777777777778 16.7715313268976  17.3472222222222 17  17.3333333333333 17  C 17.2777777777778 17  17.1180555555556 16.8487601741435  16.8541666666667 16.5462805224304  C 16.5902777777778 16.2438008707174  16.4097222222222 16.0249858035207  16.3125 15.8898353208404  C 16.1736111111111 15.9027067953814  16.0694444444444 15.9091425326519  16 15.9091425326519  C 15.9305555555556 15.9091425326519  15.8263888888889 15.9027067953814  15.6875 15.8898353208404  C 15.5902777777778 16.0249858035207  15.4097222222222 16.2438008707174  15.1458333333333 16.5462805224304  C 14.8819444444444 16.8487601741435  14.7222222222222 17  14.6666666666667 17  C 14.6527777777778 17  14.2222222222222 16.7715313268976  13.375 16.3145939806928  C 13.3472222222222 16.2952867688813  13.3333333333333 16.2727616884346  13.3333333333333 16.2470187393526  C 13.3333333333333 16.0861253075904  13.5104166666667 15.6420594359266  13.8645833333333 14.9148211243612  C 13.7395833333333 14.7539276925989  13.6354166666667 14.5865985235662  13.5520833333333 14.4128336172629  C 12.5173611111111 14.3162975582056  12 14.216543630513  12 14.1135718341851  L 12 12.7620670073822  C 12 12.6590952110543  12.5173611111111 12.5593412833617  13.5520833333333 12.4628052243044  C 13.6423611111111 12.2761688434602  13.7465277777778 12.1088396744274  13.8645833333333 11.9608177172061  C 13.5104166666667 11.2335794056407  13.3333333333333 10.7895135339769  13.3333333333333 10.6286201022146  C 13.3333333333333 10.6028771531327  13.3472222222222 10.580352072686  13.375 10.5610448608745  C 13.4027777777778 10.5481733863335  13.5243055555556 10.4838160136286  13.7395833333333 10.3679727427598  C 13.9548611111111 10.252129471891  14.1597222222222 10.1427219382926  14.3541666666667 10.0397501419648  C 14.5486111111111 9.93677834563695  14.6527777777778 9.88529244747303  14.6666666666667 9.88529244747303  C 14.7222222222222 9.88529244747303  14.8819444444444 10.0349233390119  15.1458333333333 10.3341851220897  C 15.4097222222222 10.6334469051675  15.5902777777778 10.8506530380466  15.6875 10.9858035207269  C 15.8263888888889 10.9729320461859  15.9305555555556 10.9664963089154  16 10.9664963089154  C 16.0694444444444 10.9664963089154  16.1736111111111 10.9729320461859  16.3125 10.9858035207269  C 16.6666666666667 10.5288661745221  16.9861111111111 10.1684648873746  17.2708333333333 9.9045996592845  L 17.3333333333333 9.88529244747303  C 17.3611111111111 9.88529244747303  17.7916666666667 10.1105432519402  18.625 10.5610448608745  C 18.6527777777778 10.580352072686  18.6666666666667 10.6028771531327  18.6666666666667 10.6286201022146  C 18.6666666666667 10.7895135339769  18.4895833333333 11.2335794056407  18.1354166666667 11.9608177172061  C 18.2534722222222 12.1088396744274  18.3576388888889 12.2761688434602  18.4479166666667 12.4628052243044  Z M 18.4479166666667 2.57751277683135  C 19.4826388888889 2.6740488358887  20 2.7738027635813  20 2.87677455990914  L 20 4.22827938671209  C 20 4.33125118303994  19.4826388888889 4.43100511073254  18.4479166666667 4.52754116978989  C 18.3645833333333 4.70130607609313  18.2604166666667 4.86863524512587  18.1354166666667 5.02952867688813  C 18.4895833333333 5.75676698845353  18.6666666666667 6.20083286011736  18.6666666666667 6.36172629187961  C 18.6666666666667 6.38746924096157  18.6527777777778 6.40999432140829  18.625 6.42930153321976  C 17.7777777777778 6.88623887942457  17.3472222222222 7.11470755252697  17.3333333333333 7.11470755252697  C 17.2777777777778 7.11470755252697  17.1180555555556 6.96346772667045  16.8541666666667 6.66098807495741  C 16.5902777777778 6.35850842324437  16.4097222222222 6.1396933560477  16.3125 6.00454287336741  C 16.1736111111111 6.01741434790839  16.0694444444444 6.02385008517888  16 6.02385008517888  C 15.9305555555556 6.02385008517888  15.8263888888889 6.01741434790839  15.6875 6.00454287336741  C 15.5902777777778 6.1396933560477  15.4097222222222 6.35850842324437  15.1458333333333 6.66098807495741  C 14.8819444444444 6.96346772667045  14.7222222222222 7.11470755252697  14.6666666666667 7.11470755252697  C 14.6527777777778 7.11470755252697  14.2222222222222 6.88623887942457  13.375 6.42930153321976  C 13.3472222222222 6.40999432140829  13.3333333333333 6.38746924096157  13.3333333333333 6.36172629187961  C 13.3333333333333 6.20083286011736  13.5104166666667 5.75676698845353  13.8645833333333 5.02952867688813  C 13.7395833333333 4.86863524512587  13.6354166666667 4.70130607609313  13.5520833333333 4.52754116978989  C 12.5173611111111 4.43100511073254  12 4.33125118303994  12 4.22827938671209  L 12 2.87677455990914  C 12 2.7738027635813  12.5173611111111 2.6740488358887  13.5520833333333 2.57751277683135  C 13.6423611111111 2.39087639598713  13.7465277777778 2.22354722695438  13.8645833333333 2.07552526973311  C 13.5104166666667 1.34828695816771  13.3333333333333 0.904221086503879  13.3333333333333 0.743327654741625  C 13.3333333333333 0.717584705659662  13.3472222222222 0.695059625212948  13.375 0.675752413401477  C 13.4027777777778 0.662880938860494  13.5243055555556 0.598523566155594  13.7395833333333 0.482680295286769  C 13.9548611111111 0.366837024417945  14.1597222222222 0.257429490819608  14.3541666666667 0.154457694491766  C 14.5486111111111 0.0514858981639208  14.6527777777778 0  14.6666666666667 0  C 14.7222222222222 0  14.8819444444444 0.149630891538898  15.1458333333333 0.448892674616694  C 15.4097222222222 0.748154457694491  15.5902777777778 0.965360590573539  15.6875 1.10051107325383  C 15.8263888888889 1.08763959871285  15.9305555555556 1.08120386144236  16 1.08120386144236  C 16.0694444444444 1.08120386144236  16.1736111111111 1.08763959871285  16.3125 1.10051107325383  C 16.6666666666667 0.643573727049023  16.9861111111111 0.28317243990157  17.2708333333333 0.0193072118114708  L 17.3333333333333 0  C 17.3611111111111 0  17.7916666666667 0.225250804467158  18.625 0.675752413401477  C 18.6527777777778 0.695059625212948  18.6666666666667 0.717584705659662  18.6666666666667 0.743327654741625  C 18.6666666666667 0.904221086503879  18.4895833333333 1.34828695816771  18.1354166666667 2.07552526973311  C 18.2534722222222 2.22354722695438  18.3576388888889 2.39087639598713  18.4479166666667 2.57751277683135  Z " fill-rule="nonzero" fill="#032d3e" stroke="none" transform="matrix(1 0 0 1 76 941 )" />
  </g>
</svg>