<?xml version="1.0" encoding="utf-8"?>
<svg version="1.1" xmlns:xlink="http://www.w3.org/1999/xlink" width="14px" height="16px" xmlns="http://www.w3.org/2000/svg">
  <g transform="matrix(1 0 0 1 -943 -329 )">
    <path d="M 2.36567656765677 14.6481848184818  L 3.35445544554455 14.6481848184818  L 4.1953795379538 13.6871287128713  L 2.02376237623762 11.2052805280528  L 1.18283828382838 12.1663366336634  L 1.18283828382838 13.2963696369637  L 2.36567656765677 13.2963696369637  L 2.36567656765677 14.6481848184818  Z M 8.12277227722772 5.02706270627063  C 8.16589658965897 4.97777777777778  8.18745874587459 4.91793179317932  8.18745874587459 4.84752475247525  C 8.18745874587459 4.69262926292629  8.11969196919692 4.61518151815181  7.98415841584158 4.61518151815181  C 7.92255225522552 4.61518151815181  7.87018701870187 4.63982398239824  7.82706270627063 4.68910891089109  L 2.81848184818482 10.413201320132  C 2.77535753575358 10.4624862486249  2.75379537953795 10.5223322332233  2.75379537953795 10.5927392739274  C 2.75379537953795 10.7476347634763  2.82156215621562 10.8250825082508  2.95709570957096 10.8250825082508  C 3.01870187018702 10.8250825082508  3.07106710671067 10.8004400440044  3.11419141914191 10.7511551155116  L 8.12277227722772 5.02706270627063  Z M 0 11.606600660066  L 7.68844884488449 2.81980198019802  L 11.5326732673267 7.21320132013201  L 3.84422442244224 16  L 0 16  L 0 11.606600660066  Z M 13.6580858085809 2.87260726072607  C 13.8860286028603 3.14719471947195  14 3.46754675467547  14 3.83366336633663  C 14 4.20682068206821  13.8860286028603 4.52365236523652  13.6580858085809 4.78415841584158  L 12.1240924092409 6.53729372937294  L 8.27986798679868 2.14389438943894  L 9.81386138613861 0.4013201320132  C 10.0356435643564 0.133773377337732  10.3128712871287 0  10.6455445544554 0  C 10.9720572057206 0  11.2523652365237 0.133773377337732  11.4864686468647 0.4013201320132  L 13.6580858085809 2.87260726072607  Z " fill-rule="nonzero" fill="#828080" stroke="none" transform="matrix(1 0 0 1 943 329 )" />
  </g>
</svg>