<?xml version="1.0" encoding="utf-8"?>
<svg version="1.1" xmlns:xlink="http://www.w3.org/1999/xlink" width="15px" height="10px" xmlns="http://www.w3.org/2000/svg">
  <g transform="matrix(1 0 0 1 -231 -259 )">
    <path d="M 13.8490513392857 9.0234375  C 13.9020647321429 8.97845643939394  13.9285714285714 8.92518939393939  13.9285714285714 8.86363636363636  L 13.9285714285714 3.40909090909091  C 13.75 3.57954545454545  13.5574776785714 3.73579545454545  13.3510044642857 3.87784090909091  C 11.85546875 4.8532196969697  10.6668526785714 5.65340909090909  9.78515625 6.27840909090909  C 9.50055803571428 6.48200757575757  9.26897321428572 6.640625  9.09040178571428 6.75426136363636  C 8.91183035714286 6.86789772727273  8.67047991071429 6.9827178030303  8.36635044642857 7.09872159090909  C 8.06222098214286 7.21472537878788  7.77622767857143 7.27272727272727  7.50837053571429 7.27272727272727  L 7.5 7.27272727272727  L 7.49162946428571 7.27272727272727  C 7.22377232142857 7.27272727272727  6.93777901785714 7.21472537878788  6.63364955357143 7.09872159090909  C 6.32952008928571 6.9827178030303  6.08816964285714 6.86789772727273  5.90959821428571 6.75426136363636  C 5.73102678571429 6.640625  5.49944196428571 6.48200757575757  5.21484375 6.27840909090909  C 4.33314732142857 5.65340909090909  3.14453125 4.8532196969697  1.64899553571429 3.87784090909091  C 1.44252232142857 3.73579545454545  1.25 3.57954545454545  1.07142857142857 3.40909090909091  L 1.07142857142857 8.86363636363636  C 1.07142857142857 8.92518939393939  1.09793526785714 8.97845643939394  1.15094866071429 9.0234375  C 1.20396205357143 9.06841856060606  1.26674107142857 9.09090909090909  1.33928571428571 9  L 13.6607142857143 9  C 13.7332589285714 9.09090909090909  13.7960379464286 9.06841856060606  13.8490513392857 9.0234375  Z M 13.5393415178571 2.33309659090909  C 13.798828125 1.98982007575757  13.9285714285714 1.67850378787879  13.9285714285714 1.39914772727273  L 13.9285714285714 1.32102272727273  L 13.9285714285714 1.22514204545455  C 13.9285714285714 1.22514204545455  13.9271763392857 1.19436553030303  13.9243861607143 1.1328125  C 13.9215959821429 1.07125946969697  13.9132254464286 1.04166666666667  13.8992745535714 1.04403409090909  C 13.8853236607143 1.04640151515151  13.8699776785714 1.0250946969697  13.8532366071429 0.980113636363636  C 13.8364955357143 0.935132575757575  13.8113839285714 0.917376893939393  13.7779017857143 0.926846590909091  C 13.7444196428571 0.936316287878788  13.7053571428571 0.930397727272727  13.6607142857143 1  L 1.33928571428571 1  C 1.26674107142857 0.909090909090909  1.20396205357143 0.931581439393938  1.15094866071429 0.9765625  C 1.09793526785714 1.02154356060606  1.07142857142857 1.07481060606061  1.07142857142857 1.13636363636364  C 1.07142857142857 1.93181818181818  1.48158482142857 2.60416666666667  2.30189732142857 3.15340909090909  C 3.37890625 3.87310606060606  4.49776785714286 4.62357954545455  5.65848214285714 5.40482954545455  C 5.69196428571429 5.42850378787879  5.78962053571429 5.4983428030303  5.95145089285714 5.61434659090909  C 6.11328125 5.73035037878788  6.24162946428571 5.81912878787879  6.33649553571429 5.88068181818182  C 6.43136160714286 5.94223484848485  6.55552455357143 6.01680871212121  6.708984375 6.10440340909091  C 6.86244419642857 6.19199810606061  7.00334821428571 6.25710227272727  7.13169642857143 6.29971590909091  C 7.26004464285714 6.34232954545455  7.38002232142857 6.36363636363636  7.49162946428571 6.36363636363636  L 7.5 6.36363636363636  L 7.50837053571429 6.36363636363636  C 7.61997767857143 6.36363636363636  7.73995535714286 6.34232954545455  7.86830357142857 6.29971590909091  C 7.99665178571429 6.25710227272727  8.13755580357143 6.19199810606061  8.291015625 6.10440340909091  C 8.44447544642857 6.01680871212121  8.56863839285714 5.94223484848485  8.66350446428572 5.88068181818182  C 8.75837053571429 5.81912878787879  8.88671875 5.73035037878788  9.04854910714286 5.61434659090909  C 9.21037946428572 5.4983428030303  9.30803571428572 5.42850378787879  9.34151785714286 5.40482954545455  C 10.5022321428571 4.62357954545455  11.62109375 3.87310606060606  12.6981026785714 3.15340909090909  C 12.9994419642857 2.94981060606061  13.2798549107143 2.67637310606061  13.5393415178571 2.33309659090909  Z M 14.6065848214286 0.333806818181818  C 14.8688616071429 0.556344696969696  15 0.823863636363636  15 1.13636363636364  L 15 8.86363636363636  C 15 9.17613636363636  14.8688616071429 9.4436553030303  14.6065848214286 9.66619318181818  C 14.3443080357143 9.88873106060606  14.0290178571429 10  13.6607142857143 10  L 1.33928571428571 10  C 0.970982142857143 10  0.655691964285714 9.88873106060606  0.393415178571429 9.66619318181818  C 0.131138392857143 9.4436553030303  0 9.17613636363636  0 8.86363636363636  L 0 1.13636363636364  C 0 0.823863636363636  0.131138392857143 0.556344696969696  0.393415178571429 0.333806818181818  C 0.655691964285714 0.111268939393938  0.970982142857143 0  1.33928571428571 0  L 13.6607142857143 0  C 14.0290178571429 0  14.3443080357143 0.111268939393938  14.6065848214286 0.333806818181818  Z " fill-rule="nonzero" fill="#000000" stroke="none" transform="matrix(1 0 0 1 231 259 )" />
  </g>
</svg>