<?xml version="1.0" encoding="utf-8"?>
<svg version="1.1" xmlns:xlink="http://www.w3.org/1999/xlink" width="30px" height="26px" xmlns="http://www.w3.org/2000/svg">
  <g transform="matrix(1 0 0 1 -74 -469 )">
    <path d="M 28.9903846153846 9.32199117832388  C 29.6634615384615 9.42028985507246  30 9.67149758454106  30 10.0756143667297  C 30 10.315900021004  29.84375 10.5780298256669  29.53125 10.8620037807183  L 22.9867788461538 16.6616257088847  L 24.5372596153846 24.8531821045999  C 24.5492788461538 24.9296366309599  24.5552884615385 25.0388573829027  24.5552884615385 25.1808443604285  C 24.5552884615385 25.4102079395085  24.4921875 25.6040747742071  24.3659855769231 25.7624448645243  C 24.2397836538462 25.9208149548414  24.0564903846154 26  23.8161057692308 26  C 23.5877403846154 26  23.3473557692308 25.9344675488343  23.0949519230769 25.8034026465028  L 15 21.9369880277253  L 6.90504807692308 25.8034026465028  C 6.640625 25.9344675488343  6.40024038461538 26  6.18389423076923 26  C 5.93149038461538 26  5.7421875 25.9208149548414  5.61598557692308 25.7624448645243  C 5.48978365384615 25.6040747742071  5.42668269230769 25.4102079395085  5.42668269230769 25.1808443604285  C 5.42668269230769 25.1153119092628  5.43870192307692 25.0060911573199  5.46274038461538 24.8531821045999  L 7.01322115384615 16.6616257088847  L 0.450721153846154 10.8620037807183  C 0.150240384615385 10.5671077504726  0 10.3049779458097  0 10.0756143667297  C 0 9.67149758454106  0.336538461538462 9.42028985507246  1.00961538461538 9.32199117832388  L 10.0600961538462 8.12602394454946  L 14.1165865384615 0.671707624448644  C 14.3449519230769 0.22390254148288  14.6394230769231 0  15 0  C 15.3605769230769 0  15.6550480769231 0.22390254148288  15.8834134615385 0.671707624448644  L 19.9399038461538 8.12602394454946  L 28.9903846153846 9.32199117832388  Z " fill-rule="nonzero" fill="#6d7071" stroke="none" transform="matrix(1 0 0 1 74 469 )" />
  </g>
</svg>