<?xml version="1.0" encoding="utf-8"?>
<svg version="1.1" xmlns:xlink="http://www.w3.org/1999/xlink" width="16px" height="18px" xmlns="http://www.w3.org/2000/svg">
  <g transform="matrix(1 0 0 1 -752 -237 )">
    <path d="M 2.02314814814815 0.439453125  C 2.25462962962963 0.732421874999999  2.37037037037037 1.0859375  2.37037037037037 1.5  C 2.37037037037037 2.0625  2.17283950617284 2.4921875  2 2.7890625  L 2 17.625  C 1.77777777777778 17.7265625  1.74845679012346 17.814453125  1.68981481481481 17.888671875  C 1.63117283950617 17.962890625  1.56172839506173 18  1.48148148148148 18  L 0.888888888888889 18  C 0.808641975308642 18  0.739197530864198 17.962890625  0.680555555555556 17.888671875  C 0.621913580246914 17.814453125  0.592592592592593 17.7265625  0.592592592592593 17.625  L 0.592592592592593 2.7890625  C 0.197530864197531 2.4921875  0 2.0625  0 1.5  C 0 1.0859375  0.115740740740741 0.732421874999999  0.347222222222222 0.439453125  C 0.578703703703704 0.146484375000001  0.858024691358025 0  1.18518518518519 0  C 1.51234567901235 0  1.79166666666667 0.146484375000001  2.02314814814815 0.439453125  Z M 15.8240740740741 1.72265625  C 15.9413580246914 1.87109375  16 2.046875  16 2.25  L 16 11.19140625  C 16 11.38671875  15.9614197530864 11.537109375  15.8842592592593 11.642578125  C 15.8070987654321 11.748046875  15.6851851851852 11.85546875  15.5185185185185 11.96484375  C 14.1913580246914 12.87109375  13.0524691358025 13.32421875  12.1018518518519 13.32421875  C 11.7253086419753 13.32421875  11.3441358024691 13.23828125  10.9583333333333 13.06640625  C 10.5725308641975 12.89453125  10.2376543209877 12.70703125  9.9537037037037 12.50390625  C 9.66975308641976 12.30078125  9.31327160493827 12.11328125  8.88425925925926 11.94140625  C 8.45524691358025 11.76953125  8.01543209876543 11.68359375  7.56481481481481 11.68359375  C 6.37962962962963 11.68359375  4.94753086419753 12.25390625  3.26851851851852 13.39453125  C 3.16358024691358 13.46484375  3.06172839506173 13.5  2.96296296296296 13.5  C 2.80246913580247 13.5  2.66358024691358 13.42578125  2.5462962962963 13.27734375  C 2.42901234567901 13.12890625  2.37037037037037 12.953125  2.37037037037037 12.75  L 2.37037037037037 4.0546875  C 2.37037037037037 3.8046875  2.46604938271605 3.58984375  2.65740740740741 3.41015625  C 2.78703703703704 3.30078125  3.03086419753086 3.1328125  3.38888888888889 2.90625  C 4.84567901234568 1.96875  6.14506172839506 1.5  7.28703703703704 1.5  C 7.94753086419753 1.5  8.56481481481481 1.61328125  9.13888888888889 1.83984375  C 9.71296296296296 2.06640625  10.3888888888889 2.41015625  11.1666666666667 2.87109375  C 11.4012345679012 3.01953125  11.6728395061728 3.09375  11.9814814814815 3.09375  C 12.3148148148148 3.09375  12.6774691358025 3.01171875  13.0694444444444 2.84765625  C 13.4614197530864 2.68359375  13.8009259259259 2.5  14.087962962963 2.296875  C 14.375 2.09375  14.6466049382716 1.91015625  14.9027777777778 1.74609375  C 15.158950617284 1.58203125  15.3271604938272 1.5  15.4074074074074 1.5  C 15.5679012345679 1.5  15.7067901234568 1.57421875  15.8240740740741 1.72265625  Z " fill-rule="nonzero" fill="#05b078" stroke="none" transform="matrix(1 0 0 1 752 237 )" />
  </g>
</svg>