<?xml version="1.0" encoding="utf-8"?>
<svg version="1.1" xmlns:xlink="http://www.w3.org/1999/xlink" width="21px" height="18px" xmlns="http://www.w3.org/2000/svg">
  <g transform="matrix(1 0 0 1 -412 -237 )">
    <path d="M 20.2932692307692 6.45368620037807  C 20.7644230769231 6.52173913043478  21 6.69565217391304  21 6.97542533081285  C 21 7.14177693761815  20.890625 7.32325141776937  20.671875 7.51984877126654  L 16.0907451923077 11.5349716446125  L 17.1760817307692 17.2060491493384  C 17.1844951923077 17.2589792060492  17.1887019230769 17.3345935727788  17.1887019230769 17.4328922495274  C 17.1887019230769 17.5916824196597  17.14453125 17.7258979206049  17.0561899038462 17.8355387523629  C 16.9678485576923 17.945179584121  16.8395432692308 18  16.6712740384615 18  C 16.5114182692308 18  16.3431490384615 17.9546313799622  16.1664663461538 17.8638941398866  L 10.5 15.187145557656  L 4.83353365384615 17.8638941398866  C 4.6484375 17.9546313799622  4.48016826923077 18  4.32872596153846 18  C 4.15204326923077 18  4.01953125 17.945179584121  3.93118990384615 17.8355387523629  C 3.84284855769231 17.7258979206049  3.79867788461538 17.5916824196597  3.79867788461538 17.4328922495274  C 3.79867788461538 17.3875236294896  3.80709134615385 17.3119092627599  3.82391826923077 17.2060491493384  L 4.90925480769231 11.5349716446125  L 0.315504807692308 7.51984877126654  C 0.105168269230769 7.31568998109641  0 7.13421550094518  0 6.97542533081285  C 0 6.69565217391304  0.235576923076923 6.52173913043478  0.706730769230769 6.45368620037807  L 7.04206730769231 5.62570888468809  L 9.88161057692308 0.465028355387523  C 10.0414663461538 0.15500945179584  10.2475961538462 0  10.5 0  C 10.7524038461538 0  10.9585336538462 0.15500945179584  11.1183894230769 0.465028355387523  L 13.9579326923077 5.62570888468809  L 20.2932692307692 6.45368620037807  Z " fill-rule="nonzero" fill="#c3761b" stroke="none" transform="matrix(1 0 0 1 412 237 )" />
  </g>
</svg>