<?xml version="1.0" encoding="utf-8"?>
<svg version="1.1" xmlns:xlink="http://www.w3.org/1999/xlink" width="24px" height="23px" xmlns="http://www.w3.org/2000/svg">
  <g transform="matrix(1 0 0 1 -539 -282 )">
    <path d="M 19.78125 9.748046875  C 19.96875 9.568359375  20.0625 9.34375  20.0625 9.07421875  C 20.0625 8.79470486111111  19.96875 8.56510416666667  19.78125 8.38541666666667  L 18.359375 7.03776041666667  C 18.1614583333333 6.84809027777778  17.9270833333333 6.75325520833333  17.65625 6.75325520833333  C 17.3854166666667 6.75325520833333  17.1510416666667 6.84809027777778  16.953125 7.03776041666667  L 10.578125 13.1321614583333  L 7.046875 9.748046875  C 6.84895833333333 9.55837673611111  6.61458333333333 9.46354166666667  6.34375 9.46354166666667  C 6.07291666666667 9.46354166666667  5.83854166666667 9.55837673611111  5.640625 9.748046875  L 4.21875 11.095703125  C 4.03125 11.275390625  3.9375 11.5049913194444  3.9375 11.7845052083333  C 3.9375 12.0540364583333  4.03125 12.2786458333333  4.21875 12.4583333333333  L 9.875 17.87890625  C 10.0729166666667 18.0685763888889  10.3072916666667 18.1634114583333  10.578125 18.1634114583333  C 10.859375 18.1634114583333  11.0989583333333 18.0685763888889  11.296875 17.87890625  L 19.78125 9.748046875  Z M 22.390625 5.7275390625  C 23.4635416666667 7.48947482638889  24 9.41362847222222  24 11.5  C 24 13.5863715277778  23.4635416666667 15.5105251736111  22.390625 17.2724609375  C 21.3177083333333 19.0343967013889  19.8619791666667 20.4294704861111  18.0234375 21.4576822916667  C 16.1848958333333 22.4858940972222  14.1770833333333 23  12 23  C 9.82291666666667 23  7.81510416666667 22.4858940972222  5.9765625 21.4576822916667  C 4.13802083333333 20.4294704861111  2.68229166666667 19.0343967013889  1.609375 17.2724609375  C 0.536458333333333 15.5105251736111  0 13.5863715277778  0 11.5  C 0 9.41362847222222  0.536458333333333 7.48947482638889  1.609375 5.7275390625  C 2.68229166666667 3.96560329861111  4.13802083333333 2.57052951388889  5.9765625 1.54231770833333  C 7.81510416666667 0.514105902777776  9.82291666666667 0  12 0  C 14.1770833333333 0  16.1848958333333 0.514105902777776  18.0234375 1.54231770833333  C 19.8619791666667 2.57052951388889  21.3177083333333 3.96560329861111  22.390625 5.7275390625  Z " fill-rule="nonzero" fill="#05b078" stroke="none" transform="matrix(1 0 0 1 539 282 )" />
  </g>
</svg>