<?xml version="1.0" encoding="utf-8"?>
<svg version="1.1" xmlns:xlink="http://www.w3.org/1999/xlink" width="15px" height="15px" xmlns="http://www.w3.org/2000/svg">
  <g transform="matrix(1 0 0 1 -231 -293 )">
    <path d="M 4.16015625 0.0334821428571436  C 4.19921875 0.0111607142857151  4.24107142857143 0  4.28571428571429 0  C 4.35825892857143 0  4.42103794642857 0.0265066964285721  4.47405133928571 0.0795200892857145  C 4.52706473214286 0.132533482142857  4.55357142857143 0.195312499999999  4.55357142857143 0.267857142857144  L 4.55357142857143 12.5892857142857  C 4.55357142857143 12.7008928571429  4.50613839285714 12.7790178571429  4.41127232142857 12.8236607142857  L 0.393415178571429 14.9665178571429  C 0.354352678571429 14.9888392857143  0.3125 15  0.267857142857143 15  C 0.1953125 15  0.132533482142857 14.9734933035714  0.0795200892857143 14.9204799107143  C 0.0265066964285714 14.8674665178571  0 14.8046875  0 14.7321428571429  L 0 2.41071428571429  C 0 2.29910714285714  0.0474330357142857 2.22098214285714  0.142299107142857 2.17633928571429  L 4.16015625 0.0334821428571436  Z M 14.6065848214286 0.0334821428571436  C 14.6456473214286 0.0111607142857151  14.6875 0  14.7321428571429 0  C 14.8046875 0  14.8674665178571 0.0265066964285721  14.9204799107143 0.0795200892857145  C 14.9734933035714 0.132533482142857  15 0.195312499999999  15 0.267857142857144  L 15 12.5892857142857  C 15 12.7008928571429  14.9525669642857 12.7790178571429  14.8577008928571 12.8236607142857  L 10.83984375 14.9665178571429  C 10.80078125 14.9888392857143  10.7589285714286 15  10.7142857142857 15  C 10.6417410714286 15  10.5789620535714 14.9734933035714  10.5259486607143 14.9204799107143  C 10.4729352678571 14.8674665178571  10.4464285714286 14.8046875  10.4464285714286 14.7321428571429  L 10.4464285714286 2.41071428571429  C 10.4464285714286 2.29910714285714  10.4938616071429 2.22098214285714  10.5887276785714 2.17633928571429  L 14.6065848214286 0.0334821428571436  Z M 5.16880580357143 0.0795200892857145  C 5.22181919642857 0.0265066964285721  5.28459821428571 0  5.35714285714286 0  C 5.40178571428571 0  5.44084821428571 0.00837053571428548  5.47433035714286 0.0251116071428564  L 9.76004464285714 2.16796875  C 9.86049107142857 2.22377232142857  9.91071428571428 2.3046875  10 2.41071428571429  L 10 14.7321428571429  C 9.91071428571428 14.8046875  9.88420758928572 14.8674665178571  9.83119419642857 14.9204799107143  C 9.77818080357143 14.9734933035714  9.71540178571429 15  9.64285714285714 15  C 9.59821428571429 15  9.55915178571428 14.9916294642857  9.52566964285714 14.9748883928571  L 5.23995535714286 12.83203125  C 5.13950892857143 12.7762276785714  5.08928571428571 12.6953125  5 12.5892857142857  L 5 0.267857142857144  C 5.08928571428571 0.195312499999999  5.11579241071429 0.132533482142857  5.16880580357143 0.0795200892857145  Z " fill-rule="nonzero" fill="#000000" stroke="none" transform="matrix(1 0 0 1 231 293 )" />
  </g>
</svg>