<?xml version="1.0" encoding="utf-8"?>
<svg version="1.1" xmlns:xlink="http://www.w3.org/1999/xlink" width="17px" height="15px" xmlns="http://www.w3.org/2000/svg">
  <g transform="matrix(1 0 0 1 -219 -942 )">
    <path d="M 5.71568080357143 7.28073089700997  C 5.95284598214286 7.03156146179402  6.07142857142857 6.73089700996678  6.07142857142857 6.37873754152824  C 6.07142857142857 6.0265780730897  5.95284598214286 5.72591362126246  5.71568080357143 5.47674418604651  C 5.478515625 5.22757475083056  5.19233630952381 5.10299003322259  4.85714285714286 5.10299003322259  C 4.52194940476191 5.10299003322259  4.23577008928571 5.22757475083056  3.99860491071429 5.47674418604651  C 3.76143973214286 5.72591362126246  3.64285714285714 6.0265780730897  3.64285714285714 6.37873754152824  C 3.64285714285714 6.73089700996678  3.76143973214286 7.03156146179402  3.99860491071429 7.28073089700997  C 4.23577008928571 7.52990033222591  4.52194940476191 7.65448504983389  4.85714285714286 7.65448504983389  C 5.19233630952381 7.65448504983389  5.478515625 7.52990033222591  5.71568080357143 7.28073089700997  Z M 9.35853794642857 7.28073089700997  C 9.595703125 7.03156146179402  9.71428571428571 6.73089700996678  9.71428571428571 6.37873754152824  C 9.71428571428571 6.0265780730897  9.595703125 5.72591362126246  9.35853794642857 5.47674418604651  C 9.12137276785714 5.22757475083056  8.83519345238095 5.10299003322259  8.5 5.10299003322259  C 8.16480654761905 5.10299003322259  7.87862723214286 5.22757475083056  7.64146205357143 5.47674418604651  C 7.404296875 5.72591362126246  7.28571428571429 6.0265780730897  7.28571428571429 6.37873754152824  C 7.28571428571429 6.73089700996678  7.404296875 7.03156146179402  7.64146205357143 7.28073089700997  C 7.87862723214286 7.52990033222591  8.16480654761905 7.65448504983389  8.5 7.65448504983389  C 8.83519345238095 7.65448504983389  9.12137276785714 7.52990033222591  9.35853794642857 7.28073089700997  Z M 13.0013950892857 7.28073089700997  C 13.2385602678571 7.03156146179402  13.3571428571429 6.73089700996678  13.3571428571429 6.37873754152824  C 13.3571428571429 6.0265780730897  13.2385602678571 5.72591362126246  13.0013950892857 5.47674418604651  C 12.7642299107143 5.22757475083056  12.4780505952381 5.10299003322259  12.1428571428571 5.10299003322259  C 11.8076636904762 5.10299003322259  11.521484375 5.22757475083056  11.2843191964286 5.47674418604651  C 11.0471540178571 5.72591362126246  10.9285714285714 6.0265780730897  10.9285714285714 6.37873754152824  C 10.9285714285714 6.73089700996678  11.0471540178571 7.03156146179402  11.2843191964286 7.28073089700997  C 11.521484375 7.52990033222591  11.8076636904762 7.65448504983389  12.1428571428571 7.65448504983389  C 12.4780505952381 7.65448504983389  12.7642299107143 7.52990033222591  13.0013950892857 7.28073089700997  Z M 15.8616071428571 3.17441860465116  C 16.6205357142857 4.15448504983389  17 5.22259136212625  17 6.37873754152824  C 17 7.53488372093023  16.6205357142857 8.60299003322259  15.8616071428571 9.58305647840532  C 15.1026785714286 10.563122923588  14.0718005952381 11.3372093023256  12.7689732142857 11.9053156146179  C 11.4661458333333 12.4734219269103  10.0431547619048 12.7574750830565  8.5 12.7574750830565  C 7.80431547619048 12.7574750830565  7.13709077380953 12.6976744186047  6.49832589285714 12.578073089701  C 5.40420386904762 13.7275747508306  4.02864583333333 14.4883720930233  2.37165178571429 14.8604651162791  C 2.04278273809524 14.9269102990033  1.77083333333333 14.9700996677741  1.55580357142857 14.9900332225914  C 1.47991071428571 14.9966777408638  1.41034226190476 14.9767441860465  1.34709821428571 14.9302325581395  C 1.28385416666667 14.8837209302326  1.24274553571429 14.8239202657807  1.22377232142857 14.7508305647841  C 1.19847470238095 14.6511627906977  1.26171875 14.5282392026578  1.41350446428571 14.3820598006645  C 1.44512648809524 14.3488372093023  1.51943824404762 14.2774086378738  1.63643973214286 14.1677740863787  C 1.7534412202381 14.0581395348837  1.83407738095238 13.9800664451827  1.87834821428571 13.9335548172757  C 1.92261904761905 13.8870431893688  1.99693080357143 13.8023255813953  2.10128348214286 13.6794019933555  C 2.20563616071429 13.5564784053156  2.28152901785714 13.4518272425249  2.32896205357143 13.3654485049834  C 2.37639508928571 13.2790697674419  2.44122023809524 13.156146179402  2.5234375 12.9966777408638  C 2.60565476190476 12.8372093023256  2.66889880952381 12.6777408637874  2.71316964285714 12.5182724252492  C 2.75744047619048 12.358803986711  2.80329241071429 12.1677740863787  2.85072544642857 11.9451827242525  C 2.89815848214286 11.7225913621262  2.93768601190476 11.4817275747508  2.96930803571429 11.2225913621262  C 2.04594494047619 10.624584717608  1.32021949404762 9.90531561461794  0.792131696428571 9.06478405315615  C 0.264043898809524 8.22425249169435  0 7.32890365448505  0 6.37873754152824  C 0 5.22259136212625  0.379464285714286 4.15448504983389  1.13839285714286 3.17441860465116  C 1.89732142857143 2.19435215946844  2.9281994047619 1.4202657807309  4.23102678571429 0.852159468438539  C 5.53385416666667 0.28405315614618  6.95684523809524 0  8.5 0  C 10.0431547619048 0  11.4661458333333 0.28405315614618  12.7689732142857 0.852159468438539  C 14.0718005952381 1.4202657807309  15.1026785714286 2.19435215946844  15.8616071428571 3.17441860465116  Z " fill-rule="nonzero" fill="#032d3e" stroke="none" transform="matrix(1 0 0 1 219 942 )" />
  </g>
</svg>