<?xml version="1.0" encoding="utf-8"?>
<svg version="1.1" xmlns:xlink="http://www.w3.org/1999/xlink" width="37px" height="32px" xmlns="http://www.w3.org/2000/svg">
  <g transform="matrix(1 0 0 1 -74 -513 )">
    <path d="M 12.4400111607143 15.5322259136213  C 12.9561941964286 15.0006644518272  13.2142857142857 14.3592469545958  13.2142857142857 13.6079734219269  C 13.2142857142857 12.856699889258  12.9561941964286 12.2152823920266  12.4400111607143 11.6837209302326  C 11.923828125 11.1521594684385  11.3009672619048 10.8863787375415  10.5714285714286 10.8863787375415  C 9.84188988095238 10.8863787375415  9.21902901785714 11.1521594684385  8.70284598214286 11.6837209302326  C 8.18666294642857 12.2152823920266  7.92857142857143 12.856699889258  7.92857142857143 13.6079734219269  C 7.92857142857143 14.3592469545958  8.18666294642857 15.0006644518272  8.70284598214286 15.5322259136213  C 9.21902901785714 16.0637873754153  9.84188988095238 16.3295681063123  10.5714285714286 16.3295681063123  C 11.3009672619048 16.3295681063123  11.923828125 16.0637873754153  12.4400111607143 15.5322259136213  Z M 20.3685825892857 15.5322259136213  C 20.884765625 15.0006644518272  21.1428571428571 14.3592469545958  21.1428571428571 13.6079734219269  C 21.1428571428571 12.856699889258  20.884765625 12.2152823920266  20.3685825892857 11.6837209302326  C 19.8523995535714 11.1521594684385  19.2295386904762 10.8863787375415  18.5 10.8863787375415  C 17.7704613095238 10.8863787375415  17.1476004464286 11.1521594684385  16.6314174107143 11.6837209302326  C 16.115234375 12.2152823920266  15.8571428571429 12.856699889258  15.8571428571429 13.6079734219269  C 15.8571428571429 14.3592469545958  16.115234375 15.0006644518272  16.6314174107143 15.5322259136213  C 17.1476004464286 16.0637873754153  17.7704613095238 16.3295681063123  18.5 16.3295681063123  C 19.2295386904762 16.3295681063123  19.8523995535714 16.0637873754153  20.3685825892857 15.5322259136213  Z M 28.2971540178571 15.5322259136213  C 28.8133370535714 15.0006644518272  29.0714285714286 14.3592469545958  29.0714285714286 13.6079734219269  C 29.0714285714286 12.856699889258  28.8133370535714 12.2152823920266  28.2971540178571 11.6837209302326  C 27.7809709821429 11.1521594684385  27.1581101190476 10.8863787375415  26.4285714285714 10.8863787375415  C 25.6990327380952 10.8863787375415  25.076171875 11.1521594684385  24.5599888392857 11.6837209302326  C 24.0438058035714 12.2152823920266  23.7857142857143 12.856699889258  23.7857142857143 13.6079734219269  C 23.7857142857143 14.3592469545958  24.0438058035714 15.0006644518272  24.5599888392857 15.5322259136213  C 25.076171875 16.0637873754153  25.6990327380952 16.3295681063123  26.4285714285714 16.3295681063123  C 27.1581101190476 16.3295681063123  27.7809709821429 16.0637873754153  28.2971540178571 15.5322259136213  Z M 34.5223214285714 6.77209302325581  C 36.1741071428571 8.86290143964563  37 11.1415282392027  37 13.6079734219269  C 37 16.0744186046512  36.1741071428571 18.3530454042082  34.5223214285714 20.443853820598  C 32.8705357142857 22.5346622369878  30.6268601190476 24.1860465116279  27.7912946428571 25.3980066445183  C 24.9557291666667 26.6099667774086  21.858630952381 27.2159468438538  18.5 27.2159468438538  C 16.9858630952381 27.2159468438538  15.5336681547619 27.0883720930233  14.1434151785714 26.8332225913621  C 11.7620907738095 29.2854928017719  8.76822916666667 30.9085271317829  5.16183035714286 31.7023255813954  C 4.44605654761905 31.8440753045404  3.85416666666667 31.9362126245847  3.38616071428571 31.9787375415282  C 3.22098214285714 31.9929125138427  3.06956845238095 31.9503875968992  2.93191964285714 31.8511627906977  C 2.79427083333333 31.7519379844961  2.70479910714286 31.6243632336656  2.66350446428571 31.468438538206  C 2.60844494047619 31.2558139534884  2.74609375 30.99357696567  3.07645089285714 30.6817275747508  C 3.14527529761905 30.6108527131783  3.30701264880952 30.4584717607973  3.56166294642857 30.224584717608  C 3.81631324404762 29.9906976744186  3.99181547619048 29.8241417497231  4.08816964285714 29.7249169435216  C 4.18452380952381 29.62569213732  4.34626116071429 29.4449612403101  4.57338169642857 29.1827242524917  C 4.80050223214286 28.9204872646733  4.96568080357143 28.6972314507198  5.06891741071429 28.5129568106312  C 5.17215401785714 28.3286821705426  5.31324404761905 28.0664451827243  5.4921875 27.7262458471761  C 5.67113095238095 27.3860465116279  5.80877976190476 27.0458471760797  5.90513392857143 26.7056478405316  C 6.0014880952381 26.3654485049834  6.10128348214286 25.9579180509413  6.20452008928571 25.4830564784053  C 6.30775669642857 25.0081949058693  6.39378720238095 24.4943521594684  6.46261160714286 23.9415282392027  C 4.45293898809524 22.665780730897  2.87341889880952 21.1313399778516  1.72405133928571 19.3382059800664  C 0.574683779761905 17.5450719822813  0 15.6349944629014  0 13.6079734219269  C 0 11.1415282392027  0.825892857142857 8.86290143964563  2.47767857142857 6.77209302325581  C 4.12946428571429 4.681284606866  6.37313988095238 3.02990033222591  9.20870535714286 1.81794019933555  C 12.0442708333333 0.605980066445184  15.141369047619 0  18.5 0  C 21.858630952381 0  24.9557291666667 0.605980066445184  27.7912946428571 1.81794019933555  C 30.6268601190476 3.02990033222591  32.8705357142857 4.681284606866  34.5223214285714 6.77209302325581  Z " fill-rule="nonzero" fill="#6a6e6f" stroke="none" transform="matrix(1 0 0 1 74 513 )" />
  </g>
</svg>