<?xml version="1.0" encoding="utf-8"?>
<svg version="1.1" xmlns:xlink="http://www.w3.org/1999/xlink" width="15px" height="15px" xmlns="http://www.w3.org/2000/svg">
  <g transform="matrix(1 0 0 1 -231 -275 )">
    <path d="M 12.28515625 11.38671875  C 12.4283854166667 11.0416666666667  12.5 10.712890625  12.5 10.400390625  C 12.5 10.3287760416667  12.4934895833333 10.2766927083333  12.48046875 10.244140625  C 12.4674479166667 10.2115885416667  12.4088541666667 10.1578776041667  12.3046875 10.0830078125  C 12.2005208333333 10.0081380208333  12.0686848958333 9.9267578125  11.9091796875 9.8388671875  C 11.7496744791667 9.7509765625  11.5950520833333 9.66471354166666  11.4453125 9.580078125  C 11.2955729166667 9.49544270833333  11.1474609375 9.4140625  11.0009765625 9.3359375  C 10.8544921875 9.2578125  10.76171875 9.208984375  10.72265625 9.189453125  C 10.6901041666667 9.169921875  10.6282552083333 9.12760416666667  10.537109375 9.0625  C 10.4459635416667 8.99739583333333  10.3645833333333 8.94856770833333  10.29296875 8.916015625  C 10.2213541666667 8.88346354166666  10.1529947916667 8.8671875  10.087890625 8.8671875  C 9.990234375 8.8671875  9.87141927083333 8.93391927083333  9.7314453125 9.0673828125  C 9.59147135416667 9.20084635416667  9.462890625 9.34733072916667  9.345703125 9.5068359375  C 9.228515625 9.66634114583333  9.10319010416667 9.81282552083333  8.9697265625 9.9462890625  C 8.83626302083333 10.0797526041667  8.72721354166667 10.146484375  8.642578125 10.146484375  C 8.59700520833333 10.146484375  8.54329427083333 10.1350911458333  8.4814453125 10.1123046875  C 8.41959635416667 10.0895182291667  8.369140625 10.068359375  8.330078125 10.048828125  C 8.291015625 10.029296875  8.23567708333333 9.99837239583333  8.1640625 9.9560546875  C 8.09244791666667 9.91373697916666  8.046875 9.88606770833333  8.02734375 9.873046875  C 7.3828125 9.51497395833333  6.82942708333333 9.10319010416666  6.3671875 8.6376953125  C 5.90494791666667 8.17220052083333  5.49153645833333 7.6171875  5.126953125 6.97265625  C 5.11393229166667 6.953125  5.08626302083333 6.90755208333333  5.0439453125 6.8359375  C 5.00162760416667 6.76432291666667  4.970703125 6.708984375  4.951171875 6.669921875  C 4.931640625 6.630859375  4.91048177083333 6.58040364583333  4.8876953125 6.5185546875  C 4.86490885416667 6.45670572916667  4.853515625 6.40299479166667  4.853515625 6.357421875  C 4.853515625 6.27278645833333  4.92024739583333 6.16373697916667  5.0537109375 6.0302734375  C 5.18717447916667 5.89680989583333  5.33365885416667 5.771484375  5.4931640625 5.654296875  C 5.65266927083333 5.537109375  5.79915364583333 5.40852864583333  5.9326171875 5.2685546875  C 6.06608072916667 5.12858072916667  6.1328125 5.009765625  6.1328125 4.912109375  C 6.1328125 4.84700520833333  6.11653645833333 4.77864583333333  6.083984375 4.70703125  C 6.05143229166667 4.63541666666667  6.00260416666667 4.55403645833333  5.9375 4.462890625  C 5.87239583333333 4.37174479166667  5.830078125 4.30989583333333  5.810546875 4.27734375  C 5.791015625 4.23828125  5.7421875 4.1455078125  5.6640625 3.9990234375  C 5.5859375 3.8525390625  5.50455729166667 3.70442708333333  5.419921875 3.5546875  C 5.33528645833333 3.40494791666667  5.2490234375 3.25032552083333  5.1611328125 3.0908203125  C 5.0732421875 2.93131510416666  4.99186197916667 2.79947916666666  4.9169921875 2.6953125  C 4.84212239583333 2.59114583333333  4.78841145833333 2.53255208333333  4.755859375 2.51953125  C 4.72330729166667 2.50651041666666  4.67122395833333 2.5  4.599609375 2.5  C 4.287109375 2.5  3.95833333333333 2.57161458333333  3.61328125 2.71484375  C 3.31380208333333 2.8515625  3.05338541666667 3.1591796875  2.83203125 3.6376953125  C 2.61067708333333 4.1162109375  2.5 4.541015625  2.5 4.912109375  C 2.5 5.01627604166667  2.50813802083333 5.126953125  2.5244140625 5.244140625  C 2.54069010416667 5.361328125  2.55696614583333 5.46061197916667  2.5732421875 5.5419921875  C 2.58951822916667 5.62337239583333  2.61881510416667 5.73079427083333  2.6611328125 5.8642578125  C 2.70345052083333 5.99772135416667  2.73600260416667 6.09375  2.7587890625 6.15234375  C 2.78157552083333 6.2109375  2.822265625 6.318359375  2.880859375 6.474609375  C 2.939453125 6.630859375  2.97526041666667 6.728515625  2.98828125 6.767578125  C 3.37890625 7.83528645833333  4.08365885416667 8.87858072916667  5.1025390625 9.8974609375  C 6.12141927083333 10.9163411458333  7.16471354166667 11.62109375  8.232421875 12.01171875  C 8.271484375 12.0247395833333  8.369140625 12.060546875  8.525390625 12.119140625  C 8.681640625 12.177734375  8.7890625 12.2184244791667  8.84765625 12.2412109375  C 8.90625 12.2639973958333  9.00227864583334 12.2965494791667  9.1357421875 12.3388671875  C 9.26920572916667 12.3811848958333  9.37662760416667 12.4104817708333  9.4580078125 12.4267578125  C 9.53938802083333 12.4430338541667  9.638671875 12.4593098958333  9.755859375 12.4755859375  C 9.873046875 12.4918619791667  9.98372395833334 12.5  10.087890625 12.5  C 10.458984375 12.5  10.8837890625 12.3893229166667  11.3623046875 12.16796875  C 11.8408203125 11.9466145833333  12.1484375 11.6861979166667  12.28515625 11.38671875  Z M 14.1748046875 0.825195312500001  C 14.7249348958333 1.37532552083333  15 2.03776041666666  15 2.8125  L 15 12.1875  C 15 12.9622395833333  14.7249348958333 13.6246744791667  14.1748046875 14.1748046875  C 13.6246744791667 14.7249348958333  12.9622395833333 15  12.1875 15  L 2.8125 15  C 2.03776041666667 15  1.37532552083333 14.7249348958333  0.8251953125 14.1748046875  C 0.275065104166667 13.6246744791667  0 12.9622395833333  0 12.1875  L 0 2.8125  C 0 2.03776041666666  0.275065104166667 1.37532552083333  0.8251953125 0.825195312500001  C 1.37532552083333 0.275065104166666  2.03776041666667 0  2.8125 0  L 12.1875 0  C 12.9622395833333 0  13.6246744791667 0.275065104166666  14.1748046875 0.825195312500001  Z " fill-rule="nonzero" fill="#000000" stroke="none" transform="matrix(1 0 0 1 231 275 )" />
  </g>
</svg>