<?xml version="1.0" encoding="utf-8"?>
<svg version="1.1" xmlns:xlink="http://www.w3.org/1999/xlink" width="38px" height="33px" xmlns="http://www.w3.org/2000/svg">
  <g transform="matrix(1 0 0 1 -70 -381 )">
    <path d="M 16.2489583333333 19.8824531516184  C 17.2385416666667 18.9454855195911  17.7333333333333 17.8148779102783  17.7333333333333 16.4906303236797  C 17.7333333333333 15.1663827370812  17.2385416666667 14.0357751277683  16.2489583333333 13.0988074957411  C 15.259375 12.1618398637138  14.0652777777778 11.6933560477002  12.6666666666667 11.6933560477002  C 11.2680555555556 11.6933560477002  10.0739583333333 12.1618398637138  9.084375 13.0988074957411  C 8.09479166666667 14.0357751277683  7.6 15.1663827370812  7.6 16.4906303236797  C 7.6 17.8148779102783  8.09479166666667 18.9454855195911  9.084375 19.8824531516184  C 10.0739583333333 20.8194207836457  11.2680555555556 21.2879045996593  12.6666666666667 21.2879045996593  C 14.0652777777778 21.2879045996593  15.259375 20.8194207836457  16.2489583333333 19.8824531516184  Z M 32.1911458333333 27.7810902896082  C 32.6859375 27.3126064735945  32.9333333333333 26.7473026689381  32.9333333333333 26.0851788756388  C 32.9333333333333 25.4355479840999  32.6826388888889 24.8733674048836  32.18125 24.3986371379898  C 31.6798611111111 23.923906871096  31.0861111111111 23.6865417376491  30.4 23.6865417376491  C 29.7138888888889 23.6865417376491  29.1201388888889 23.923906871096  28.61875 24.3986371379898  C 28.1173611111111 24.8733674048836  27.8666666666667 25.4355479840999  27.8666666666667 26.0851788756388  C 27.8666666666667 26.7473026689381  28.1140625 27.3126064735945  28.6088541666667 27.7810902896082  C 29.1036458333333 28.2495741056218  29.7006944444444 28.4838160136286  30.4 28.4838160136286  C 31.0993055555556 28.4838160136286  31.6963541666667 28.2495741056218  32.1911458333333 27.7810902896082  Z M 32.1911458333333 8.59199318568995  C 32.6859375 8.12350936967632  32.9333333333333 7.55820556501987  32.9333333333333 6.89608177172062  C 32.9333333333333 6.24645088018171  32.6826388888889 5.68427030096536  32.18125 5.20954003407155  C 31.6798611111111 4.73480976717774  31.0861111111111 4.49744463373083  30.4 4.49744463373083  C 29.7138888888889 4.49744463373083  29.1201388888889 4.73480976717774  28.61875 5.20954003407155  C 28.1173611111111 5.68427030096536  27.8666666666667 6.24645088018171  27.8666666666667 6.89608177172062  C 27.8666666666667 7.55820556501987  28.1140625 8.12350936967632  28.6088541666667 8.59199318568995  C 29.1036458333333 9.06047700170358  29.7006944444444 9.29471890971039  30.4 9.29471890971039  C 31.0993055555556 9.29471890971039  31.6963541666667 9.06047700170358  32.1911458333333 8.59199318568995  Z M 25.1947916666667 14.4199318568995  C 25.2871527777778 14.5261215218626  25.3333333333333 14.6479273140261  25.3333333333333 14.7853492333901  L 25.3333333333333 18.252129471891  C 25.3333333333333 18.3770584894946  25.2871527777778 18.4988642816581  25.1947916666667 18.6175468483816  C 25.1024305555556 18.7362294151051  24.996875 18.801817149347  24.878125 18.8143100511073  L 21.8104166666667 19.2640545144804  C 21.6652777777778 19.7013060760931  21.4541666666667 20.1760363429869  21.1770833333333 20.6882453151618  C 21.6256944444444 21.2879045996593  22.2194444444444 22.0062464508802  22.9583333333333 22.8432708688245  C 23.0506944444444 22.9806927881885  23.096875 23.1056218057922  23.096875 23.2180579216354  C 23.096875 23.3679727427598  23.0506944444444 23.4866553094833  22.9583333333333 23.5741056218058  C 22.6548611111111 23.9488926746167  22.1105902777778 24.507950028393  21.3255208333333 25.2512776831346  C 20.5404513888889 25.9946053378762  20.0225694444444 26.366269165247  19.771875 26.366269165247  C 19.6267361111111 26.366269165247  19.4881944444444 26.3225440090857  19.35625 26.2350936967632  L 17.0802083333333 24.5485519591141  C 16.5920138888889 24.785917092561  16.0840277777778 24.9795570698467  15.55625 25.129471890971  C 15.4111111111111 26.4787052810903  15.259375 27.4469051675185  15.1010416666667 28.0340715502555  C 15.0086805555556 28.3339011925043  14.8107638888889 28.4838160136286  14.5072916666667 28.4838160136286  L 10.8260416666667 28.4838160136286  C 10.6809027777778 28.4838160136286  10.5489583333333 28.4369676320273  10.4302083333333 28.3432708688245  C 10.3114583333333 28.2495741056218  10.2454861111111 28.1402612152186  10.2322916666667 28.015332197615  L 9.77708333333333 25.1482112436116  C 9.32847222222222 25.023282226008  8.83368055555556 24.8296422487223  8.29270833333333 24.5672913117547  L 5.95729166666667 26.2350936967632  C 5.86493055555556 26.3225440090857  5.73298611111111 26.366269165247  5.56145833333333 26.366269165247  C 5.41631944444445 26.366269165247  5.27777777777778 26.3162975582056  5.14583333333333 26.2163543441227  C 3.24583333333333 24.5547984099943  2.29583333333333 23.5553662691652  2.29583333333333 23.2180579216354  C 2.29583333333333 23.1056218057922  2.34201388888889 22.9869392390687  2.434375 22.8620102214651  C 2.56631944444444 22.68710959682  2.83680555555556 22.3560477001704  3.24583333333333 21.8688245315162  C 3.65486111111111 21.381601362862  3.96493055555556 21.0005678591709  4.17604166666667 20.7257240204429  C 3.87256944444444 20.1760363429869  3.64166666666667 19.663827370812  3.48333333333333 19.1890971039182  L 0.475 18.7393526405451  C 0.343055555555556 18.7268597387848  0.230902777777778 18.6675184554231  0.138541666666667 18.56132879046  C 0.0461805555555556 18.4551391254969  0 18.3333333333333  0 18.1959114139693  L 0 14.7291311754685  C 0 14.6042021578648  0.0461805555555556 14.4823963657013  0.138541666666667 14.3637137989779  C 0.230902777777778 14.2450312322544  0.336458333333333 14.1794434980125  0.455208333333333 14.1669505962521  L 3.52291666666667 13.717206132879  C 3.66805555555556 13.2799545712663  3.87916666666667 12.8052243043725  4.15625 12.2930153321976  C 3.70763888888889 11.6933560477002  3.11388888888889 10.9750141964793  2.375 10.1379897785349  C 2.28263888888889 10.0005678591709  2.23645833333333 9.87563884156729  2.23645833333333 9.76320272572402  C 2.23645833333333 9.61328790459966  2.28263888888889 9.48835888699602  2.375 9.38841567291312  C 2.66527777777778 9.01362862010221  3.20625 8.45769449176604  3.99791666666667 7.7206132879046  C 4.78958333333333 6.98353208404315  5.31076388888889 6.61499148211244  5.56145833333333 6.61499148211244  C 5.70659722222222 6.61499148211244  5.84513888888889 6.65871663827371  5.97708333333333 6.74616695059625  L 8.253125 8.43270868824531  C 8.70173611111111 8.20783645655877  9.20972222222222 8.00795002839296  9.77708333333333 7.83304940374787  C 9.92222222222222 6.48381601362862  10.0739583333333 5.52186257808063  10.2322916666667 4.94718909710392  C 10.3246527777778 4.6473594548552  10.5225694444444 4.49744463373083  10.8260416666667 4.49744463373083  L 14.5072916666667 4.49744463373083  C 14.6524305555556 4.49744463373083  14.784375 4.5442930153322  14.903125 4.63798977853492  C 15.021875 4.73168654173765  15.0878472222222 4.84099943214083  15.1010416666667 4.96592844974446  L 15.55625 7.83304940374787  C 16.0048611111111 7.9579784213515  16.4996527777778 8.15161839863714  17.040625 8.41396933560477  L 19.3760416666667 6.74616695059625  C 19.4815972222222 6.65871663827371  19.6135416666667 6.61499148211244  19.771875 6.61499148211244  C 19.9170138888889 6.61499148211244  20.0555555555556 6.66496308915389  20.1875 6.7649063032368  C 22.0875 8.42646223736513  23.0375 9.42589437819421  23.0375 9.76320272572402  C 23.0375 9.86314593980693  22.9913194444444 9.98182850653038  22.8989583333333 10.1192504258944  C 22.740625 10.3191368540602  22.4635416666667 10.65644520159  22.0677083333333 11.1311754684838  C 21.671875 11.6059057353776  21.375 11.9806927881885  21.1770833333333 12.2555366269165  C 21.4805555555556 12.855195911414  21.7048611111111 13.3674048835889  21.85 13.7921635434412  L 24.8583333333333 14.2231686541738  C 24.9902777777778 14.2481544576945  25.1024305555556 14.3137421919364  25.1947916666667 14.4199318568995  Z M 35.0510416666667 24.1925042589438  C 37.0170138888889 24.3798977853492  38 24.5735377626349  38 24.7734241908007  L 38 27.396933560477  C 38 27.5968199886428  37.0170138888889 27.7904599659284  35.0510416666667 27.9778534923339  C 34.8927083333333 28.3151618398637  34.6947916666667 28.6399772856332  34.4572916666667 28.9522998296423  C 35.1302083333333 30.3639977285633  35.4666666666667 31.2260079500284  35.4666666666667 31.5383304940375  C 35.4666666666667 31.5883021010789  35.4402777777778 31.6320272572402  35.3875 31.6695059625213  C 33.7777777777778 32.5565019875071  32.9597222222222 33  32.9333333333333 33  C 32.8277777777778 33  32.5243055555556 32.7064168086315  32.0229166666667 32.1192504258944  C 31.5215277777778 31.5320840431573  31.1784722222222 31.1073253833049  30.99375 30.8449744463373  C 30.7298611111111 30.869960249858  30.5319444444444 30.8824531516184  30.4 30.8824531516184  C 30.2680555555556 30.8824531516184  30.0701388888889 30.869960249858  29.80625 30.8449744463373  C 29.6215277777778 31.1073253833049  29.2784722222222 31.5320840431573  28.7770833333333 32.1192504258944  C 28.2756944444444 32.7064168086315  27.9722222222222 33  27.8666666666667 33  C 27.8402777777778 33  27.0222222222222 32.5565019875071  25.4125 31.6695059625213  C 25.3597222222222 31.6320272572402  25.3333333333333 31.5883021010789  25.3333333333333 31.5383304940375  C 25.3333333333333 31.2260079500284  25.6697916666667 30.3639977285633  26.3427083333333 28.9522998296423  C 26.1052083333333 28.6399772856332  25.9072916666667 28.3151618398637  25.7489583333333 27.9778534923339  C 23.7829861111111 27.7904599659284  22.8 27.5968199886428  22.8 27.396933560477  L 22.8 24.7734241908007  C 22.8 24.5735377626349  23.7829861111111 24.3798977853492  25.7489583333333 24.1925042589438  C 25.9204861111111 23.8302101078932  26.1184027777778 23.5053946621238  26.3427083333333 23.2180579216354  C 25.6697916666667 21.8063600227144  25.3333333333333 20.9443498012493  25.3333333333333 20.6320272572402  C 25.3333333333333 20.5820556501988  25.3597222222222 20.5383304940375  25.4125 20.5008517887564  C 25.4652777777778 20.4758659852357  25.6961805555556 20.350936967632  26.1052083333333 20.1260647359455  C 26.5142361111111 19.9011925042589  26.9034722222222 19.6888131743328  27.2729166666667 19.488926746167  C 27.6423611111111 19.2890403180011  27.8402777777778 19.1890971039182  27.8666666666667 19.1890971039182  C 27.9722222222222 19.1890971039182  28.2756944444444 19.4795570698467  28.7770833333333 20.0604770017036  C 29.2784722222222 20.6413969335605  29.6215277777778 21.0630323679727  29.80625 21.3253833049404  C 30.0701388888889 21.3003975014196  30.2680555555556 21.2879045996593  30.4 21.2879045996593  C 30.5319444444444 21.2879045996593  30.7298611111111 21.3003975014196  30.99375 21.3253833049404  C 31.6666666666667 20.4383872799546  32.2736111111111 19.7387847813742  32.8145833333333 19.2265758091993  L 32.9333333333333 19.1890971039182  C 32.9861111111111 19.1890971039182  33.8041666666667 19.6263486655309  35.3875 20.5008517887564  C 35.4402777777778 20.5383304940375  35.4666666666667 20.5820556501988  35.4666666666667 20.6320272572402  C 35.4666666666667 20.9443498012493  35.1302083333333 21.8063600227144  34.4572916666667 23.2180579216354  C 34.6815972222222 23.5053946621238  34.8795138888889 23.8302101078932  35.0510416666667 24.1925042589438  Z M 35.0510416666667 5.00340715502555  C 37.0170138888889 5.19080068143101  38 5.38444065871664  38 5.58432708688245  L 38 8.20783645655877  C 38 8.40772288472459  37.0170138888889 8.60136286201022  35.0510416666667 8.78875638841567  C 34.8927083333333 9.12606473594549  34.6947916666667 9.45088018171493  34.4572916666667 9.76320272572402  C 35.1302083333333 11.1749006246451  35.4666666666667 12.0369108461102  35.4666666666667 12.3492333901192  C 35.4666666666667 12.3992049971607  35.4402777777778 12.442930153322  35.3875 12.4804088586031  C 33.7777777777778 13.3674048835889  32.9597222222222 13.8109028960818  32.9333333333333 13.8109028960818  C 32.8277777777778 13.8109028960818  32.5243055555556 13.5173197047132  32.0229166666667 12.9301533219761  C 31.5215277777778 12.3429869392391  31.1784722222222 11.9182282793867  30.99375 11.6558773424191  C 30.7298611111111 11.6808631459398  30.5319444444444 11.6933560477002  30.4 11.6933560477002  C 30.2680555555556 11.6933560477002  30.0701388888889 11.6808631459398  29.80625 11.6558773424191  C 29.6215277777778 11.9182282793867  29.2784722222222 12.3429869392391  28.7770833333333 12.9301533219761  C 28.2756944444444 13.5173197047132  27.9722222222222 13.8109028960818  27.8666666666667 13.8109028960818  C 27.8402777777778 13.8109028960818  27.0222222222222 13.3674048835889  25.4125 12.4804088586031  C 25.3597222222222 12.442930153322  25.3333333333333 12.3992049971607  25.3333333333333 12.3492333901192  C 25.3333333333333 12.0369108461102  25.6697916666667 11.1749006246451  26.3427083333333 9.76320272572402  C 26.1052083333333 9.45088018171493  25.9072916666667 9.12606473594549  25.7489583333333 8.78875638841567  C 23.7829861111111 8.60136286201022  22.8 8.40772288472459  22.8 8.20783645655877  L 22.8 5.58432708688245  C 22.8 5.38444065871664  23.7829861111111 5.19080068143101  25.7489583333333 5.00340715502555  C 25.9204861111111 4.64111300397501  26.1184027777778 4.31629755820556  26.3427083333333 4.02896081771721  C 25.6697916666667 2.61726291879614  25.3333333333333 1.75525269733106  25.3333333333333 1.44293015332198  C 25.3333333333333 1.39295854628052  25.3597222222222 1.34923339011925  25.4125 1.31175468483816  C 25.4652777777778 1.28676888131743  25.6961805555556 1.1618398637138  26.1052083333333 0.936967632027258  C 26.5142361111111 0.712095400340716  26.9034722222222 0.499716070414533  27.2729166666667 0.299829642248723  C 27.6423611111111 0.0999432140829051  27.8402777777778 0  27.8666666666667 0  C 27.9722222222222 0  28.2756944444444 0.290459965928448  28.7770833333333 0.871379897785348  C 29.2784722222222 1.45229982964225  29.6215277777778 1.87393526405452  29.80625 2.13628620102215  C 30.0701388888889 2.11130039750142  30.2680555555556 2.09880749574106  30.4 2.09880749574106  C 30.5319444444444 2.09880749574106  30.7298611111111 2.11130039750142  30.99375 2.13628620102215  C 31.6666666666667 1.24929017603634  32.2736111111111 0.549687677455989  32.8145833333333 0.0374787052810903  L 32.9333333333333 0  C 32.9861111111111 0  33.8041666666667 0.437251561612718  35.3875 1.31175468483816  C 35.4402777777778 1.34923339011925  35.4666666666667 1.39295854628052  35.4666666666667 1.44293015332198  C 35.4666666666667 1.75525269733106  35.1302083333333 2.61726291879614  34.4572916666667 4.02896081771721  C 34.6815972222222 4.31629755820556  34.8795138888889 4.64111300397501  35.0510416666667 5.00340715502555  Z " fill-rule="nonzero" fill="#6d7071" stroke="none" transform="matrix(1 0 0 1 70 381 )" />
  </g>
</svg>