<?xml version="1.0" encoding="utf-8"?>
<svg version="1.1" xmlns:xlink="http://www.w3.org/1999/xlink" width="23px" height="16px" xmlns="http://www.w3.org/2000/svg">
  <g transform="matrix(1 0 0 1 -656 -325 )">
    <path d="M 17.0767299107143 12.5347222222222  C 18.7923177083333 11.4097222222222  20.2191220238095 9.89814814814815  21.3571428571429 8  C 20.0565476190476 5.81481481481481  18.426525297619 4.18055555555556  16.4670758928571 3.09722222222222  C 16.989025297619 4.06018518518518  17.25 5.10185185185185  17.25 6.22222222222222  C 17.25 7.93518518518518  16.6874069940476 9.40046296296296  15.5622209821429 10.6180555555556  C 14.4370349702381 11.8356481481481  13.0829613095238 12.4444444444444  11.5 12.4444444444444  C 9.91703869047619 12.4444444444444  8.56296502976191 11.8356481481481  7.43777901785714 10.6180555555556  C 6.31259300595238 9.40046296296296  5.75 7.93518518518518  5.75 6.22222222222222  C 5.75 5.10185185185185  6.01097470238095 4.06018518518518  6.53292410714286 3.09722222222222  C 4.57347470238095 4.18055555555556  2.94345238095238 5.81481481481481  1.64285714285714 8  C 2.78087797619048 9.89814814814815  4.20768229166667 11.4097222222222  5.92327008928571 12.5347222222222  C 7.63885788690476 13.6597222222222  9.49776785714286 14.2222222222222  11.5 14.2222222222222  C 13.5022321428571 14.2222222222222  15.3611421130952 13.6597222222222  17.0767299107143 12.5347222222222  Z M 11.9363839285714 3.13888888888889  C 12.0561755952381 3.00925925925926  12.1160714285714 2.85185185185185  12.1160714285714 2.66666666666667  C 12.1160714285714 2.48148148148148  12.0561755952381 2.32407407407407  11.9363839285714 2.19444444444444  C 11.8165922619048 2.06481481481481  11.671130952381 2  11.5 2  C 10.430431547619 2  9.51274181547619 2.41435185185185  8.74693080357143 3.24305555555556  C 7.98111979166667 4.07175925925926  7.59821428571429 5.06481481481481  7.59821428571429 6.22222222222222  C 7.59821428571429 6.40740740740741  7.65811011904762 6.56481481481481  7.77790178571429 6.69444444444444  C 7.89769345238095 6.82407407407407  8.04315476190476 6.88888888888889  8.21428571428572 6.88888888888889  C 8.38541666666667 6.88888888888889  8.53087797619048 6.82407407407407  8.65066964285714 6.69444444444444  C 8.77046130952381 6.56481481481481  8.83035714285714 6.40740740740741  8.83035714285714 6.22222222222222  C 8.83035714285714 5.42592592592593  9.09133184523809 4.74537037037037  9.61328125 4.18055555555556  C 10.1352306547619 3.61574074074074  10.7641369047619 3.33333333333333  11.5 3.33333333333333  C 11.671130952381 3.33333333333333  11.8165922619048 3.26851851851852  11.9363839285714 3.13888888888889  Z M 22.7433035714286 7.04166666666667  C 22.9144345238095 7.36574074074074  23 7.68518518518518  23 8  C 23 8.31481481481481  22.9144345238095 8.63425925925926  22.7433035714286 8.95833333333333  C 21.5453869047619 11.087962962963  19.9346168154762 12.7939814814815  17.9109933035714 14.0763888888889  C 15.8873697916667 15.3587962962963  13.7503720238095 16  11.5 16  C 9.24962797619048 16  7.11263020833333 15.3564814814815  5.08900669642857 14.0694444444444  C 3.06538318452381 12.7824074074074  1.4546130952381 11.0787037037037  0.256696428571429 8.95833333333333  C 0.0855654761904762 8.63425925925926  0 8.31481481481481  0 8  C 0 7.68518518518518  0.0855654761904762 7.36574074074074  0.256696428571429 7.04166666666667  C 1.4546130952381 4.9212962962963  3.06538318452381 3.21759259259259  5.08900669642857 1.93055555555556  C 7.11263020833333 0.643518518518517  9.24962797619048 0  11.5 0  C 13.7503720238095 0  15.8873697916667 0.643518518518517  17.9109933035714 1.93055555555556  C 19.9346168154762 3.21759259259259  21.5453869047619 4.9212962962963  22.7433035714286 7.04166666666667  Z " fill-rule="nonzero" fill="#000000" stroke="none" transform="matrix(1 0 0 1 656 325 )" />
  </g>
</svg>