<?xml version="1.0" encoding="utf-8"?>
<svg version="1.1" xmlns:xlink="http://www.w3.org/1999/xlink" width="19px" height="17px" xmlns="http://www.w3.org/2000/svg">
  <g transform="matrix(1 0 0 1 -46 -2011 )">
    <path d="M 8.12447916666667 10.2424758659852  C 8.61927083333333 9.75979557069847  8.86666666666667 9.1773613477191  8.86666666666667 8.49517319704713  C 8.86666666666667 7.81298504637516  8.61927083333333 7.2305508233958  8.12447916666667 6.74787052810903  C 7.6296875 6.26519023282226  7.03263888888889 6.02385008517888  6.33333333333333 6.02385008517888  C 5.63402777777778 6.02385008517888  5.03697916666667 6.26519023282226  4.5421875 6.74787052810903  C 4.04739583333333 7.2305508233958  3.8 7.81298504637516  3.8 8.49517319704713  C 3.8 9.1773613477191  4.04739583333333 9.75979557069847  4.5421875 10.2424758659852  C 5.03697916666667 10.725156161272  5.63402777777778 10.9664963089154  6.33333333333333 10.9664963089154  C 7.03263888888889 10.9664963089154  7.6296875 10.725156161272  8.12447916666667 10.2424758659852  Z M 16.0955729166667 14.3114707552527  C 16.34296875 14.0701306076093  16.4666666666667 13.7789134961196  16.4666666666667 13.4378194207836  C 16.4666666666667 13.1031610827182  16.3413194444444 12.8135529055461  16.090625 12.5689948892675  C 15.8399305555556 12.3244368729888  15.5430555555556 12.2021578648495  15.2 12.2021578648495  C 14.8569444444444 12.2021578648495  14.5600694444444 12.3244368729888  14.309375 12.5689948892675  C 14.0586805555556 12.8135529055461  13.9333333333333 13.1031610827182  13.9333333333333 13.4378194207836  C 13.9333333333333 13.7789134961196  14.05703125 14.0701306076093  14.3044270833333 14.3114707552527  C 14.5518229166667 14.5528109028961  14.8503472222222 14.6734809767178  15.2 14.6734809767178  C 15.5496527777778 14.6734809767178  15.8481770833333 14.5528109028961  16.0955729166667 14.3114707552527  Z M 16.0955729166667 4.42617830777967  C 16.34296875 4.18483816013629  16.4666666666667 3.8936210486466  16.4666666666667 3.55252697331062  C 16.4666666666667 3.21786863524513  16.3413194444444 2.92826045807306  16.090625 2.68370244179444  C 15.8399305555556 2.4391444255158  15.5430555555556 2.31686541737649  15.2 2.31686541737649  C 14.8569444444444 2.31686541737649  14.5600694444444 2.4391444255158  14.309375 2.68370244179444  C 14.0586805555556 2.92826045807306  13.9333333333333 3.21786863524513  13.9333333333333 3.55252697331062  C 13.9333333333333 3.8936210486466  14.05703125 4.18483816013629  14.3044270833333 4.42617830777967  C 14.5518229166667 4.66751845542306  14.8503472222222 4.78818852924475  15.2 4.78818852924475  C 15.5496527777778 4.78818852924475  15.8481770833333 4.66751845542306  16.0955729166667 4.42617830777967  Z M 12.5973958333333 7.42844974446337  C 12.6435763888889 7.48315351126254  12.6666666666667 7.54590194964982  12.6666666666667 7.61669505962521  L 12.6666666666667 9.40261215218626  C 12.6666666666667 9.46696952489116  12.6435763888889 9.52971796327844  12.5973958333333 9.5908574673481  C 12.5512152777778 9.65199697141776  12.4984375 9.68578459208783  12.4390625 9.69222032935832  L 10.9052083333333 9.92390687109597  C 10.8326388888889 10.1491576755631  10.7270833333333 10.3937156918418  10.5885416666667 10.6575809199319  C 10.8128472222222 10.9664963089154  11.1097222222222 11.3365512019686  11.4791666666667 11.7677455990914  C 11.5253472222222 11.8385387090668  11.5484375 11.9028960817717  11.5484375 11.9608177172061  C 11.5484375 12.038046564452  11.5253472222222 12.0991860685217  11.4791666666667 12.1442362294151  C 11.3274305555556 12.3373083475298  11.0552951388889 12.6253075903842  10.6627604166667 13.0082339579784  C 10.2702256944444 13.3911603255726  10.0112847222222 13.5826235093697  9.8859375 13.5826235093697  C 9.81336805555556 13.5826235093697  9.74409722222222 13.560098428923  9.678125 13.5150482680295  L 8.54010416666667 12.6462237365133  C 8.29600694444444 12.7685027446527  8.04201388888889 12.8682566723453  7.778125 12.9454855195911  C 7.70555555555556 13.6405451448041  7.6296875 14.1393147832671  7.55052083333333 14.4417944349801  C 7.50434027777778 14.5962521294719  7.40538194444444 14.6734809767178  7.25364583333333 14.6734809767178  L 5.41302083333333 14.6734809767178  C 5.34045138888889 14.6734809767178  5.27447916666667 14.6493469619534  5.21510416666667 14.6010789324248  C 5.15572916666667 14.5528109028961  5.12274305555556 14.4964982017793  5.11614583333333 14.4321408290744  L 4.88854166666667 12.9551391254969  C 4.66423611111111 12.890781752792  4.41684027777778 12.7910278250994  4.14635416666667 12.6558773424191  L 2.97864583333333 13.5150482680295  C 2.93246527777778 13.560098428923  2.86649305555556 13.5826235093697  2.78072916666667 13.5826235093697  C 2.70815972222222 13.5826235093697  2.63888888888889 13.5568805602877  2.57291666666667 13.5053946621238  C 1.62291666666667 12.6494416051486  1.14791666666667 12.1345826235094  1.14791666666667 11.9608177172061  C 1.14791666666667 11.9028960817717  1.17100694444444 11.8417565777021  1.2171875 11.7773992049972  C 1.28315972222222 11.6872988832103  1.41840277777778 11.5167518455423  1.62291666666667 11.2657580919932  C 1.82743055555556 11.0147643384441  1.98246527777778 10.8184743516941  2.08802083333333 10.6768881317433  C 1.93628472222222 10.3937156918418  1.82083333333333 10.1298504637517  1.74166666666667 9.88529244747303  L 0.2375 9.65360590573538  C 0.171527777777778 9.64717016846489  0.115451388888889 9.61660041643006  0.0692708333333333 9.56189664963089  C 0.0230902777777778 9.50719288283172  0 9.44444444444444  0 9.37365133446905  L 0 7.58773424190801  C 0 7.5233768692031  0.0230902777777778 7.46062843081582  0.0692708333333333 7.39948892674617  C 0.115451388888889 7.33834942267651  0.168229166666667 7.30456180200644  0.227604166666667 7.29812606473595  L 1.76145833333333 7.0664395229983  C 1.83402777777778 6.84118871853114  1.93958333333333 6.59663070225251  2.078125 6.33276547416241  C 1.85381944444444 6.02385008517888  1.55694444444444 5.65379519212568  1.1875 5.22260079500284  C 1.14131944444444 5.15180768502744  1.11822916666667 5.08745031232254  1.11822916666667 5.02952867688813  C 1.11822916666667 4.95229982964225  1.14131944444444 4.88794245693734  1.1875 4.83645655877342  C 1.33263888888889 4.64338444065872  1.603125 4.3569941321219  1.99895833333333 3.97728563316297  C 2.39479166666667 3.59757713420405  2.65538194444445 3.40772288472459  2.78072916666667 3.40772288472459  C 2.85329861111111 3.40772288472459  2.92256944444444 3.4302479651713  2.98854166666667 3.47529812606474  L 4.1265625 4.34412265758092  C 4.35086805555556 4.22827938671209  4.60486111111111 4.12530759038425  4.88854166666667 4.03520726859739  C 4.96111111111111 3.34014764338444  5.03697916666667 2.84459587355669  5.11614583333333 2.54855195911414  C 5.16232638888889 2.39409426462237  5.26128472222222 2.31686541737649  5.41302083333333 2.31686541737649  L 7.25364583333333 2.31686541737649  C 7.32621527777778 2.31686541737649  7.3921875 2.34099943214083  7.4515625 2.38926746166951  C 7.5109375 2.43753549119818  7.54392361111111 2.49384819231497  7.55052083333333 2.55820556501988  L 7.778125 4.03520726859739  C 8.00243055555556 4.09956464130229  8.24982638888889 4.19931856899489  8.5203125 4.33446905167518  L 9.68802083333333 3.47529812606474  C 9.74079861111111 3.4302479651713  9.80677083333334 3.40772288472459  9.8859375 3.40772288472459  C 9.95850694444444 3.40772288472459  10.0277777777778 3.43346583380655  10.09375 3.48495173197047  C 11.04375 4.34090478894567  11.51875 4.8557637705849  11.51875 5.02952867688813  C 11.51875 5.08101457505205  11.4956597222222 5.14215407912171  11.4494791666667 5.2129471890971  C 11.3703125 5.31591898542495  11.2317708333333 5.48968389172818  11.0338541666667 5.73424190800682  C 10.8359375 5.97879992428544  10.6875 6.17187204240015  10.5885416666667 6.31345826235094  C 10.7402777777778 6.62237365133447  10.8524305555556 6.88623887942457  10.925 7.10505394662124  L 12.4291666666667 7.32708688245315  C 12.4951388888889 7.33995835699413  12.5512152777778 7.37374597766421  12.5973958333333 7.42844974446337  Z M 17.5255208333333 12.4628052243044  C 18.5085069444444 12.5593412833617  19 12.6590952110543  19 12.7620670073822  L 19 14.1135718341851  C 19 14.216543630513  18.5085069444444 14.3162975582056  17.5255208333333 14.4128336172629  C 17.4463541666667 14.5865985235662  17.3473958333333 14.7539276925989  17.2286458333333 14.9148211243612  C 17.5651041666667 15.6420594359266  17.7333333333333 16.0861253075904  17.7333333333333 16.2470187393526  C 17.7333333333333 16.2727616884346  17.7201388888889 16.2952867688813  17.69375 16.3145939806928  C 16.8888888888889 16.7715313268976  16.4798611111111 17  16.4666666666667 17  C 16.4138888888889 17  16.2621527777778 16.8487601741435  16.0114583333333 16.5462805224304  C 15.7607638888889 16.2438008707174  15.5892361111111 16.0249858035207  15.496875 15.8898353208404  C 15.3649305555556 15.9027067953814  15.2659722222222 15.9091425326519  15.2 15.9091425326519  C 15.1340277777778 15.9091425326519  15.0350694444444 15.9027067953814  14.903125 15.8898353208404  C 14.8107638888889 16.0249858035207  14.6392361111111 16.2438008707174  14.3885416666667 16.5462805224304  C 14.1378472222222 16.8487601741435  13.9861111111111 17  13.9333333333333 17  C 13.9201388888889 17  13.5111111111111 16.7715313268976  12.70625 16.3145939806928  C 12.6798611111111 16.2952867688813  12.6666666666667 16.2727616884346  12.6666666666667 16.2470187393526  C 12.6666666666667 16.0861253075904  12.8348958333333 15.6420594359266  13.1713541666667 14.9148211243612  C 13.0526041666667 14.7539276925989  12.9536458333333 14.5865985235662  12.8744791666667 14.4128336172629  C 11.8914930555556 14.3162975582056  11.4 14.216543630513  11.4 14.1135718341851  L 11.4 12.7620670073822  C 11.4 12.6590952110543  11.8914930555556 12.5593412833617  12.8744791666667 12.4628052243044  C 12.9602430555556 12.2761688434602  13.0592013888889 12.1088396744274  13.1713541666667 11.9608177172061  C 12.8348958333333 11.2335794056407  12.6666666666667 10.7895135339769  12.6666666666667 10.6286201022146  C 12.6666666666667 10.6028771531327  12.6798611111111 10.580352072686  12.70625 10.5610448608745  C 12.7326388888889 10.5481733863335  12.8480902777778 10.4838160136286  13.0526041666667 10.3679727427598  C 13.2571180555556 10.252129471891  13.4517361111111 10.1427219382926  13.6364583333333 10.0397501419648  C 13.8211805555556 9.93677834563695  13.9201388888889 9.88529244747303  13.9333333333333 9.88529244747303  C 13.9861111111111 9.88529244747303  14.1378472222222 10.0349233390119  14.3885416666667 10.3341851220897  C 14.6392361111111 10.6334469051675  14.8107638888889 10.8506530380466  14.903125 10.9858035207269  C 15.0350694444444 10.9729320461859  15.1340277777778 10.9664963089154  15.2 10.9664963089154  C 15.2659722222222 10.9664963089154  15.3649305555556 10.9729320461859  15.496875 10.9858035207269  C 15.8333333333333 10.5288661745221  16.1368055555556 10.1684648873746  16.4072916666667 9.9045996592845  L 16.4666666666667 9.88529244747303  C 16.4930555555556 9.88529244747303  16.9020833333333 10.1105432519402  17.69375 10.5610448608745  C 17.7201388888889 10.580352072686  17.7333333333333 10.6028771531327  17.7333333333333 10.6286201022146  C 17.7333333333333 10.7895135339769  17.5651041666667 11.2335794056407  17.2286458333333 11.9608177172061  C 17.3407986111111 12.1088396744274  17.4397569444444 12.2761688434602  17.5255208333333 12.4628052243044  Z M 17.5255208333333 2.57751277683135  C 18.5085069444444 2.6740488358887  19 2.7738027635813  19 2.87677455990914  L 19 4.22827938671209  C 19 4.33125118303994  18.5085069444444 4.43100511073254  17.5255208333333 4.52754116978989  C 17.4463541666667 4.70130607609313  17.3473958333333 4.86863524512587  17.2286458333333 5.02952867688813  C 17.5651041666667 5.75676698845353  17.7333333333333 6.20083286011736  17.7333333333333 6.36172629187961  C 17.7333333333333 6.38746924096157  17.7201388888889 6.40999432140829  17.69375 6.42930153321976  C 16.8888888888889 6.88623887942457  16.4798611111111 7.11470755252697  16.4666666666667 7.11470755252697  C 16.4138888888889 7.11470755252697  16.2621527777778 6.96346772667045  16.0114583333333 6.66098807495741  C 15.7607638888889 6.35850842324437  15.5892361111111 6.1396933560477  15.496875 6.00454287336741  C 15.3649305555556 6.01741434790839  15.2659722222222 6.02385008517888  15.2 6.02385008517888  C 15.1340277777778 6.02385008517888  15.0350694444444 6.01741434790839  14.903125 6.00454287336741  C 14.8107638888889 6.1396933560477  14.6392361111111 6.35850842324437  14.3885416666667 6.66098807495741  C 14.1378472222222 6.96346772667045  13.9861111111111 7.11470755252697  13.9333333333333 7.11470755252697  C 13.9201388888889 7.11470755252697  13.5111111111111 6.88623887942457  12.70625 6.42930153321976  C 12.6798611111111 6.40999432140829  12.6666666666667 6.38746924096157  12.6666666666667 6.36172629187961  C 12.6666666666667 6.20083286011736  12.8348958333333 5.75676698845353  13.1713541666667 5.02952867688813  C 13.0526041666667 4.86863524512587  12.9536458333333 4.70130607609313  12.8744791666667 4.52754116978989  C 11.8914930555556 4.43100511073254  11.4 4.33125118303994  11.4 4.22827938671209  L 11.4 2.87677455990914  C 11.4 2.7738027635813  11.8914930555556 2.6740488358887  12.8744791666667 2.57751277683135  C 12.9602430555556 2.39087639598713  13.0592013888889 2.22354722695438  13.1713541666667 2.07552526973311  C 12.8348958333333 1.34828695816771  12.6666666666667 0.904221086503879  12.6666666666667 0.743327654741625  C 12.6666666666667 0.717584705659662  12.6798611111111 0.695059625212948  12.70625 0.675752413401477  C 12.7326388888889 0.662880938860494  12.8480902777778 0.598523566155594  13.0526041666667 0.482680295286769  C 13.2571180555556 0.366837024417945  13.4517361111111 0.257429490819608  13.6364583333333 0.154457694491766  C 13.8211805555556 0.0514858981639208  13.9201388888889 0  13.9333333333333 0  C 13.9861111111111 0  14.1378472222222 0.149630891538898  14.3885416666667 0.448892674616694  C 14.6392361111111 0.748154457694491  14.8107638888889 0.965360590573539  14.903125 1.10051107325383  C 15.0350694444444 1.08763959871285  15.1340277777778 1.08120386144236  15.2 1.08120386144236  C 15.2659722222222 1.08120386144236  15.3649305555556 1.08763959871285  15.496875 1.10051107325383  C 15.8333333333333 0.643573727049023  16.1368055555556 0.28317243990157  16.4072916666667 0.0193072118114708  L 16.4666666666667 0  C 16.4930555555556 0  16.9020833333333 0.225250804467158  17.69375 0.675752413401477  C 17.7201388888889 0.695059625212948  17.7333333333333 0.717584705659662  17.7333333333333 0.743327654741625  C 17.7333333333333 0.904221086503879  17.5651041666667 1.34828695816771  17.2286458333333 2.07552526973311  C 17.3407986111111 2.22354722695438  17.4397569444444 2.39087639598713  17.5255208333333 2.57751277683135  Z " fill-rule="nonzero" fill="#032d3e" stroke="none" transform="matrix(1 0 0 1 46 2011 )" />
  </g>
</svg>