<?xml version="1.0" encoding="utf-8"?>
<svg version="1.1" xmlns:xlink="http://www.w3.org/1999/xlink" width="19px" height="16px" xmlns="http://www.w3.org/2000/svg">
  <g transform="matrix(1 0 0 1 -122 -2012 )">
    <path d="M 5.06666666666667 5.71428571428571  C 5.06666666666667 6.54166666666667  5.33385416666667 7.30357142857143  5.86822916666667 8  C 4.79947916666667 8.02976190476191  3.92534722222222 8.41071428571428  3.24583333333333 9.14285714285714  L 1.91979166666667 9.14285714285714  C 1.37881944444444 9.14285714285714  0.923611111111111 9.02232142857143  0.554166666666667 8.78125  C 0.184722222222222 8.54017857142857  0 8.1875  0 7.72321428571429  C 0 5.62202380952381  0.409027777777778 4.57142857142857  1.22708333333333 4.57142857142857  C 1.26666666666667 4.57142857142857  1.41015625 4.63392857142857  1.65755208333333 4.75892857142857  C 1.90494791666667 4.88392857142857  2.2265625 5.01041666666667  2.62239583333333 5.13839285714286  C 3.01822916666667 5.26636904761905  3.41076388888889 5.33035714285714  3.8 5.33035714285714  C 4.24201388888889 5.33035714285714  4.68072916666667 5.26190476190476  5.11614583333333 5.125  C 5.08315972222222 5.34523809523809  5.06666666666667 5.54166666666667  5.06666666666667 5.71428571428571  Z M 16.43203125 12.7633928571429  C 16.4551215277778 13.0639880952381  16.4666666666667 13.3720238095238  16.4666666666667 13.6875  C 16.4666666666667 14.4017857142857  16.2258680555556 14.9657738095238  15.7442708333333 15.3794642857143  C 15.2626736111111 15.7931547619048  14.6227430555556 16  13.8244791666667 16  L 5.17552083333333 16  C 4.37725694444444 16  3.73732638888889 15.7931547619048  3.25572916666667 15.3794642857143  C 2.77413194444444 14.9657738095238  2.53333333333333 14.4017857142857  2.53333333333333 13.6875  C 2.53333333333333 13.3720238095238  2.54487847222222 13.0639880952381  2.56796875 12.7633928571429  C 2.59105902777778 12.4627976190476  2.63723958333333 12.1383928571429  2.70651041666667 11.7901785714286  C 2.77578125 11.4419642857143  2.86319444444444 11.1190476190476  2.96875 10.8214285714286  C 3.07430555555556 10.5238095238095  3.21614583333333 10.233630952381  3.39427083333333 9.95089285714286  C 3.57239583333333 9.66815476190476  3.77690972222222 9.42708333333333  4.0078125 9.22767857142857  C 4.23871527777778 9.02827380952381  4.52074652777778 8.86904761904762  4.85390625 8.75  C 5.18706597222222 8.63095238095238  5.55486111111111 8.57142857142857  5.95729166666667 8.57142857142857  C 6.02326388888889 8.57142857142857  6.16510416666667 8.63541666666667  6.3828125 8.76339285714286  C 6.60052083333333 8.89136904761905  6.84131944444444 9.03422619047619  7.10520833333333 9.19196428571428  C 7.36909722222222 9.34970238095238  7.72204861111111 9.49255952380952  8.1640625 9.62053571428572  C 8.60607638888889 9.74851190476191  9.05138888888889 9.8125  9.5 9.8125  C 9.94861111111111 9.8125  10.3939236111111 9.74851190476191  10.8359375 9.62053571428572  C 11.2779513888889 9.49255952380952  11.6309027777778 9.34970238095238  11.8947916666667 9.19196428571428  C 12.1586805555556 9.03422619047619  12.3994791666667 8.89136904761905  12.6171875 8.76339285714286  C 12.8348958333333 8.63541666666667  12.9767361111111 8.57142857142857  13.0427083333333 8.57142857142857  C 13.4451388888889 8.57142857142857  13.8129340277778 8.63095238095238  14.14609375 8.75  C 14.4792534722222 8.86904761904762  14.7612847222222 9.02827380952381  14.9921875 9.22767857142857  C 15.2230902777778 9.42708333333333  15.4276041666667 9.66815476190476  15.6057291666667 9.95089285714286  C 15.7838541666667 10.233630952381  15.9256944444444 10.5238095238095  16.03125 10.8214285714286  C 16.1368055555556 11.1190476190476  16.22421875 11.4419642857143  16.2934895833333 11.7901785714286  C 16.3627604166667 12.1383928571429  16.4089409722222 12.4627976190476  16.43203125 12.7633928571429  Z M 5.59114583333333 0.669642857142858  C 6.0859375 1.11607142857143  6.33333333333333 1.6547619047619  6.33333333333333 2.28571428571429  C 6.33333333333333 2.91666666666667  6.0859375 3.45535714285714  5.59114583333333 3.90178571428571  C 5.09635416666667 4.34821428571429  4.49930555555556 4.57142857142857  3.8 4.57142857142857  C 3.10069444444445 4.57142857142857  2.50364583333333 4.34821428571429  2.00885416666667 3.90178571428571  C 1.5140625 3.45535714285714  1.26666666666667 2.91666666666667  1.26666666666667 2.28571428571429  C 1.26666666666667 1.6547619047619  1.5140625 1.11607142857143  2.00885416666667 0.669642857142858  C 2.50364583333333 0.223214285714286  3.10069444444445 0  3.8 0  C 4.49930555555556 0  5.09635416666667 0.223214285714286  5.59114583333333 0.669642857142858  Z M 12.18671875 3.29017857142857  C 12.92890625 3.95982142857143  13.3 4.76785714285714  13.3 5.71428571428571  C 13.3 6.66071428571429  12.92890625 7.46875  12.18671875 8.13839285714286  C 11.44453125 8.80803571428572  10.5489583333333 9.14285714285714  9.5 9.14285714285714  C 8.45104166666667 9.14285714285714  7.55546875 8.80803571428572  6.81328125 8.13839285714286  C 6.07109375 7.46875  5.7 6.66071428571429  5.7 5.71428571428571  C 5.7 4.76785714285714  6.07109375 3.95982142857143  6.81328125 3.29017857142857  C 7.55546875 2.62053571428571  8.45104166666667 2.28571428571429  9.5 2.28571428571429  C 10.5489583333333 2.28571428571429  11.44453125 2.62053571428571  12.18671875 3.29017857142857  Z M 17.7729166666667 4.57142857142857  C 18.5909722222222 4.57142857142857  19 5.62202380952381  19 7.72321428571429  C 19 8.1875  18.8152777777778 8.54017857142857  18.4458333333333 8.78125  C 18.0763888888889 9.02232142857143  17.6211805555556 9.14285714285714  17.0802083333333 9.14285714285714  L 15.7541666666667 9.14285714285714  C 15.0746527777778 8.41071428571428  14.2005208333333 8.02976190476191  13.1317708333333 8  C 13.6661458333333 7.30357142857143  13.9333333333333 6.54166666666667  13.9333333333333 5.71428571428571  C 13.9333333333333 5.54166666666667  13.9168402777778 5.34523809523809  13.8838541666667 5.125  C 14.3192708333333 5.26190476190476  14.7579861111111 5.33035714285714  15.2 5.33035714285714  C 15.5892361111111 5.33035714285714  15.9817708333333 5.26636904761905  16.3776041666667 5.13839285714286  C 16.7734375 5.01041666666667  17.0950520833333 4.88392857142857  17.3424479166667 4.75892857142857  C 17.58984375 4.63392857142857  17.7333333333333 4.57142857142857  17.7729166666667 4.57142857142857  Z M 16.9911458333333 0.669642857142858  C 17.4859375 1.11607142857143  17.7333333333333 1.6547619047619  17.7333333333333 2.28571428571429  C 17.7333333333333 2.91666666666667  17.4859375 3.45535714285714  16.9911458333333 3.90178571428571  C 16.4963541666667 4.34821428571429  15.8993055555556 4.57142857142857  15.2 4.57142857142857  C 14.5006944444444 4.57142857142857  13.9036458333333 4.34821428571429  13.4088541666667 3.90178571428571  C 12.9140625 3.45535714285714  12.6666666666667 2.91666666666667  12.6666666666667 2.28571428571429  C 12.6666666666667 1.6547619047619  12.9140625 1.11607142857143  13.4088541666667 0.669642857142858  C 13.9036458333333 0.223214285714286  14.5006944444444 0  15.2 0  C 15.8993055555556 0  16.4963541666667 0.223214285714286  16.9911458333333 0.669642857142858  Z " fill-rule="nonzero" fill="#032d3e" stroke="none" transform="matrix(1 0 0 1 122 2012 )" />
  </g>
</svg>