<?xml version="1.0" encoding="utf-8"?>
<svg version="1.1" xmlns:xlink="http://www.w3.org/1999/xlink" width="16px" height="15px" xmlns="http://www.w3.org/2000/svg">
  <g transform="matrix(1 0 0 1 -197 -2012 )">
    <path d="M 5.37946428571429 7.28073089700997  C 5.60267857142857 7.03156146179402  5.71428571428571 6.73089700996678  5.71428571428571 6.37873754152824  C 5.71428571428571 6.0265780730897  5.60267857142857 5.72591362126246  5.37946428571429 5.47674418604651  C 5.15625 5.22757475083056  4.88690476190476 5.10299003322259  4.57142857142857 5.10299003322259  C 4.25595238095238 5.10299003322259  3.98660714285714 5.22757475083056  3.76339285714286 5.47674418604651  C 3.54017857142857 5.72591362126246  3.42857142857143 6.0265780730897  3.42857142857143 6.37873754152824  C 3.42857142857143 6.73089700996678  3.54017857142857 7.03156146179402  3.76339285714286 7.28073089700997  C 3.98660714285714 7.52990033222591  4.25595238095238 7.65448504983389  4.57142857142857 7.65448504983389  C 4.88690476190476 7.65448504983389  5.15625 7.52990033222591  5.37946428571429 7.28073089700997  Z M 8.80803571428571 7.28073089700997  C 9.03125 7.03156146179402  9.14285714285714 6.73089700996678  9.14285714285714 6.37873754152824  C 9.14285714285714 6.0265780730897  9.03125 5.72591362126246  8.80803571428571 5.47674418604651  C 8.58482142857143 5.22757475083056  8.31547619047619 5.10299003322259  8 5.10299003322259  C 7.68452380952381 5.10299003322259  7.41517857142857 5.22757475083056  7.19196428571429 5.47674418604651  C 6.96875 5.72591362126246  6.85714285714286 6.0265780730897  6.85714285714286 6.37873754152824  C 6.85714285714286 6.73089700996678  6.96875 7.03156146179402  7.19196428571429 7.28073089700997  C 7.41517857142857 7.52990033222591  7.68452380952381 7.65448504983389  8 7.65448504983389  C 8.31547619047619 7.65448504983389  8.58482142857143 7.52990033222591  8.80803571428571 7.28073089700997  Z M 12.2366071428571 7.28073089700997  C 12.4598214285714 7.03156146179402  12.5714285714286 6.73089700996678  12.5714285714286 6.37873754152824  C 12.5714285714286 6.0265780730897  12.4598214285714 5.72591362126246  12.2366071428571 5.47674418604651  C 12.0133928571429 5.22757475083056  11.7440476190476 5.10299003322259  11.4285714285714 5.10299003322259  C 11.1130952380952 5.10299003322259  10.84375 5.22757475083056  10.6205357142857 5.47674418604651  C 10.3973214285714 5.72591362126246  10.2857142857143 6.0265780730897  10.2857142857143 6.37873754152824  C 10.2857142857143 6.73089700996678  10.3973214285714 7.03156146179402  10.6205357142857 7.28073089700997  C 10.84375 7.52990033222591  11.1130952380952 7.65448504983389  11.4285714285714 7.65448504983389  C 11.7440476190476 7.65448504983389  12.0133928571429 7.52990033222591  12.2366071428571 7.28073089700997  Z M 14.9285714285714 3.17441860465116  C 15.6428571428571 4.15448504983389  16 5.22259136212625  16 6.37873754152824  C 16 7.53488372093023  15.6428571428571 8.60299003322259  14.9285714285714 9.58305647840532  C 14.2142857142857 10.563122923588  13.2440476190476 11.3372093023256  12.0178571428571 11.9053156146179  C 10.7916666666667 12.4734219269103  9.45238095238095 12.7574750830565  8 12.7574750830565  C 7.3452380952381 12.7574750830565  6.71726190476191 12.6976744186047  6.11607142857143 12.578073089701  C 5.08630952380952 13.7275747508306  3.79166666666667 14.4883720930233  2.23214285714286 14.8604651162791  C 1.92261904761905 14.9269102990033  1.66666666666667 14.9700996677741  1.46428571428571 14.9900332225914  C 1.39285714285714 14.9966777408638  1.32738095238095 14.9767441860465  1.26785714285714 14.9302325581395  C 1.20833333333333 14.8837209302326  1.16964285714286 14.8239202657807  1.15178571428571 14.7508305647841  C 1.12797619047619 14.6511627906977  1.1875 14.5282392026578  1.33035714285714 14.3820598006645  C 1.36011904761905 14.3488372093023  1.43005952380952 14.2774086378738  1.54017857142857 14.1677740863787  C 1.65029761904762 14.0581395348837  1.72619047619048 13.9800664451827  1.76785714285714 13.9335548172757  C 1.80952380952381 13.8870431893688  1.87946428571429 13.8023255813953  1.97767857142857 13.6794019933555  C 2.07589285714286 13.5564784053156  2.14732142857143 13.4518272425249  2.19196428571429 13.3654485049834  C 2.23660714285714 13.2790697674419  2.29761904761905 13.156146179402  2.375 12.9966777408638  C 2.45238095238095 12.8372093023256  2.51190476190476 12.6777408637874  2.55357142857143 12.5182724252492  C 2.5952380952381 12.358803986711  2.63839285714286 12.1677740863787  2.68303571428571 11.9451827242525  C 2.72767857142857 11.7225913621262  2.76488095238095 11.4817275747508  2.79464285714286 11.2225913621262  C 1.92559523809524 10.624584717608  1.24255952380952 9.90531561461794  0.745535714285714 9.06478405315615  C 0.248511904761905 8.22425249169435  0 7.32890365448505  0 6.37873754152824  C 0 5.22259136212625  0.357142857142857 4.15448504983389  1.07142857142857 3.17441860465116  C 1.78571428571429 2.19435215946844  2.75595238095238 1.4202657807309  3.98214285714286 0.852159468438539  C 5.20833333333333 0.28405315614618  6.54761904761905 0  8 0  C 9.45238095238095 0  10.7916666666667 0.28405315614618  12.0178571428571 0.852159468438539  C 13.2440476190476 1.4202657807309  14.2142857142857 2.19435215946844  14.9285714285714 3.17441860465116  Z " fill-rule="nonzero" fill="#032d3e" stroke="none" transform="matrix(1 0 0 1 197 2012 )" />
  </g>
</svg>