<?xml version="1.0" encoding="utf-8"?>
<svg version="1.1" xmlns:xlink="http://www.w3.org/1999/xlink" width="20px" height="16px" xmlns="http://www.w3.org/2000/svg">
  <g transform="matrix(1 0 0 1 -125 -942 )">
    <path d="M 5.33333333333333 5.71428571428571  C 5.33333333333333 6.54166666666667  5.61458333333333 7.30357142857143  6.17708333333333 8  C 5.05208333333333 8.02976190476191  4.13194444444444 8.41071428571428  3.41666666666667 9.14285714285714  L 2.02083333333333 9.14285714285714  C 1.45138888888889 9.14285714285714  0.972222222222222 9.02232142857143  0.583333333333333 8.78125  C 0.194444444444444 8.54017857142857  0 8.1875  0 7.72321428571429  C 0 5.62202380952381  0.430555555555555 4.57142857142857  1.29166666666667 4.57142857142857  C 1.33333333333333 4.57142857142857  1.484375 4.63392857142857  1.74479166666667 4.75892857142857  C 2.00520833333333 4.88392857142857  2.34375 5.01041666666667  2.76041666666667 5.13839285714286  C 3.17708333333333 5.26636904761905  3.59027777777778 5.33035714285714  4 5.33035714285714  C 4.46527777777778 5.33035714285714  4.92708333333333 5.26190476190476  5.38541666666667 5.125  C 5.35069444444444 5.34523809523809  5.33333333333333 5.54166666666667  5.33333333333333 5.71428571428571  Z M 17.296875 12.7633928571429  C 17.3211805555556 13.0639880952381  17.3333333333333 13.3720238095238  17.3333333333333 13.6875  C 17.3333333333333 14.4017857142857  17.0798611111111 14.9657738095238  16.5729166666667 15.3794642857143  C 16.0659722222222 15.7931547619048  15.3923611111111 16  14.5520833333333 16  L 5.44791666666667 16  C 4.60763888888889 16  3.93402777777778 15.7931547619048  3.42708333333333 15.3794642857143  C 2.92013888888889 14.9657738095238  2.66666666666667 14.4017857142857  2.66666666666667 13.6875  C 2.66666666666667 13.3720238095238  2.67881944444444 13.0639880952381  2.703125 12.7633928571429  C 2.72743055555556 12.4627976190476  2.77604166666667 12.1383928571429  2.84895833333333 11.7901785714286  C 2.921875 11.4419642857143  3.01388888888889 11.1190476190476  3.125 10.8214285714286  C 3.23611111111111 10.5238095238095  3.38541666666667 10.233630952381  3.57291666666667 9.95089285714286  C 3.76041666666667 9.66815476190476  3.97569444444444 9.42708333333333  4.21875 9.22767857142857  C 4.46180555555556 9.02827380952381  4.75868055555556 8.86904761904762  5.109375 8.75  C 5.46006944444445 8.63095238095238  5.84722222222222 8.57142857142857  6.27083333333333 8.57142857142857  C 6.34027777777778 8.57142857142857  6.48958333333333 8.63541666666667  6.71875 8.76339285714286  C 6.94791666666667 8.89136904761905  7.20138888888889 9.03422619047619  7.47916666666667 9.19196428571428  C 7.75694444444445 9.34970238095238  8.12847222222222 9.49255952380952  8.59375 9.62053571428572  C 9.05902777777778 9.74851190476191  9.52777777777778 9.8125  10 9.8125  C 10.4722222222222 9.8125  10.9409722222222 9.74851190476191  11.40625 9.62053571428572  C 11.8715277777778 9.49255952380952  12.2430555555556 9.34970238095238  12.5208333333333 9.19196428571428  C 12.7986111111111 9.03422619047619  13.0520833333333 8.89136904761905  13.28125 8.76339285714286  C 13.5104166666667 8.63541666666667  13.6597222222222 8.57142857142857  13.7291666666667 8.57142857142857  C 14.1527777777778 8.57142857142857  14.5399305555556 8.63095238095238  14.890625 8.75  C 15.2413194444444 8.86904761904762  15.5381944444444 9.02827380952381  15.78125 9.22767857142857  C 16.0243055555556 9.42708333333333  16.2395833333333 9.66815476190476  16.4270833333333 9.95089285714286  C 16.6145833333333 10.233630952381  16.7638888888889 10.5238095238095  16.875 10.8214285714286  C 16.9861111111111 11.1190476190476  17.078125 11.4419642857143  17.1510416666667 11.7901785714286  C 17.2239583333333 12.1383928571429  17.2725694444444 12.4627976190476  17.296875 12.7633928571429  Z M 5.88541666666667 0.669642857142858  C 6.40625 1.11607142857143  6.66666666666667 1.6547619047619  6.66666666666667 2.28571428571429  C 6.66666666666667 2.91666666666667  6.40625 3.45535714285714  5.88541666666667 3.90178571428571  C 5.36458333333333 4.34821428571429  4.73611111111111 4.57142857142857  4 4.57142857142857  C 3.26388888888889 4.57142857142857  2.63541666666667 4.34821428571429  2.11458333333333 3.90178571428571  C 1.59375 3.45535714285714  1.33333333333333 2.91666666666667  1.33333333333333 2.28571428571429  C 1.33333333333333 1.6547619047619  1.59375 1.11607142857143  2.11458333333333 0.669642857142858  C 2.63541666666667 0.223214285714286  3.26388888888889 0  4 0  C 4.73611111111111 0  5.36458333333333 0.223214285714286  5.88541666666667 0.669642857142858  Z M 12.828125 3.29017857142857  C 13.609375 3.95982142857143  14 4.76785714285714  14 5.71428571428571  C 14 6.66071428571429  13.609375 7.46875  12.828125 8.13839285714286  C 12.046875 8.80803571428572  11.1041666666667 9.14285714285714  10 9.14285714285714  C 8.89583333333334 9.14285714285714  7.953125 8.80803571428572  7.171875 8.13839285714286  C 6.390625 7.46875  6 6.66071428571429  6 5.71428571428571  C 6 4.76785714285714  6.390625 3.95982142857143  7.171875 3.29017857142857  C 7.953125 2.62053571428571  8.89583333333334 2.28571428571429  10 2.28571428571429  C 11.1041666666667 2.28571428571429  12.046875 2.62053571428571  12.828125 3.29017857142857  Z M 18.7083333333333 4.57142857142857  C 19.5694444444445 4.57142857142857  20 5.62202380952381  20 7.72321428571429  C 20 8.1875  19.8055555555556 8.54017857142857  19.4166666666667 8.78125  C 19.0277777777778 9.02232142857143  18.5486111111111 9.14285714285714  17.9791666666667 9.14285714285714  L 16.5833333333333 9.14285714285714  C 15.8680555555556 8.41071428571428  14.9479166666667 8.02976190476191  13.8229166666667 8  C 14.3854166666667 7.30357142857143  14.6666666666667 6.54166666666667  14.6666666666667 5.71428571428571  C 14.6666666666667 5.54166666666667  14.6493055555556 5.34523809523809  14.6145833333333 5.125  C 15.0729166666667 5.26190476190476  15.5347222222222 5.33035714285714  16 5.33035714285714  C 16.4097222222222 5.33035714285714  16.8229166666667 5.26636904761905  17.2395833333333 5.13839285714286  C 17.65625 5.01041666666667  17.9947916666667 4.88392857142857  18.2552083333333 4.75892857142857  C 18.515625 4.63392857142857  18.6666666666667 4.57142857142857  18.7083333333333 4.57142857142857  Z M 17.8854166666667 0.669642857142858  C 18.40625 1.11607142857143  18.6666666666667 1.6547619047619  18.6666666666667 2.28571428571429  C 18.6666666666667 2.91666666666667  18.40625 3.45535714285714  17.8854166666667 3.90178571428571  C 17.3645833333333 4.34821428571429  16.7361111111111 4.57142857142857  16 4.57142857142857  C 15.2638888888889 4.57142857142857  14.6354166666667 4.34821428571429  14.1145833333333 3.90178571428571  C 13.59375 3.45535714285714  13.3333333333333 2.91666666666667  13.3333333333333 2.28571428571429  C 13.3333333333333 1.6547619047619  13.59375 1.11607142857143  14.1145833333333 0.669642857142858  C 14.6354166666667 0.223214285714286  15.2638888888889 0  16 0  C 16.7361111111111 0  17.3645833333333 0.223214285714286  17.8854166666667 0.669642857142858  Z " fill-rule="nonzero" fill="#032d3e" stroke="none" transform="matrix(1 0 0 1 125 942 )" />
  </g>
</svg>